<svg width="170mm" height="115mm" viewBox="0 0 170 115" xmlns="http://www.w3.org/2000/svg"><defs><path id="b" d="M42 68h274v332H42z"/><path id="a" d="M38 150h583v280H38z"/></defs><g style="display:inline"><g transform="matrix(.882 0 0 .882 -7.168 -17.906)"><circle style="fill:#e0e0e0;fill-opacity:1;stroke-width:1.67832;stroke-linecap:round" cx="137.735" cy="81.335" r="35"/><circle style="fill:#fff;stroke-width:.71764;stroke-linecap:round" cx="137.735" cy="81.335" r="14.966"/><g style="fill:#e0e0e0;fill-opacity:1"><path style="fill:#e0e0e0;fill-opacity:1;stroke-linecap:round;paint-order:stroke markers fill" d="M39.813 4.772h19.8v27.915H29.99L29.855 14.1c.058-9.246.055-9.319 9.958-9.327z" transform="matrix(.30073 .06475 -.07278 .33803 129.937 34.25)"/><path style="fill:#e0e0e0;fill-opacity:1;stroke-linecap:round;paint-order:stroke markers fill" d="M64.797 4.784h-19.8V32.7H74.62l.134-18.588c-.058-9.246-.055-9.318-9.958-9.327Z" transform="matrix(.30073 .06475 -.07278 .33803 129.937 34.25)"/></g><path style="display:inline;fill:#e0e0e0;fill-opacity:1;stroke-linecap:round;paint-order:stroke markers fill" d="M39.813 4.772h19.8v27.915H29.99L29.855 14.1c.058-9.246.055-9.319 9.958-9.327z" transform="matrix(-.259 .166 .18658 .2911 125.643 35.72)"/><path style="display:inline;fill:#e0e0e0;fill-opacity:1;stroke-linecap:round;paint-order:stroke markers fill" d="M64.797 4.784h-19.8V32.7H74.62l.134-18.588c-.058-9.246-.055-9.318-9.958-9.327Z" transform="matrix(-.259 .166 .18658 .2911 125.643 35.72)"/><g style="fill:#e0e0e0;fill-opacity:1"><path style="fill:#e0e0e0;fill-opacity:1;stroke-linecap:round;paint-order:stroke markers fill" d="M39.813 4.772h19.8v27.915H29.99L29.855 14.1c.058-9.246.055-9.319 9.958-9.327z" transform="matrix(-.069 .29979 .33696 .07755 96.984 56.541)"/><path style="fill:#e0e0e0;fill-opacity:1;stroke-linecap:round;paint-order:stroke markers fill" d="M64.797 4.784h-19.8V32.7H74.62l.134-18.588c-.058-9.246-.055-9.318-9.958-9.327Z" transform="matrix(-.069 .29979 .33696 .07755 96.984 56.541)"/></g><g style="fill:#e0e0e0;fill-opacity:1"><path style="fill:#e0e0e0;fill-opacity:1;stroke-linecap:round;paint-order:stroke markers fill" d="M39.813 4.772h19.8v27.915H29.99L29.855 14.1c.058-9.246.055-9.319 9.958-9.327z" transform="matrix(-.06787 .30004 -.33725 -.07629 185.176 74.696)"/><path style="fill:#e0e0e0;fill-opacity:1;stroke-linecap:round;paint-order:stroke markers fill" d="M64.797 4.784h-19.8V32.7H74.62l.134-18.588c-.058-9.246-.055-9.318-9.958-9.327Z" transform="matrix(-.06787 .30004 -.33725 -.07629 185.176 74.696)"/></g><g style="fill:#e0e0e0;fill-opacity:1"><path style="fill:#e0e0e0;fill-opacity:1;stroke-linecap:round;paint-order:stroke markers fill" d="M39.813 4.772h19.8v27.915H29.99L29.855 14.1c.058-9.246.055-9.319 9.958-9.327z" transform="matrix(.18015 .24936 .28028 -.20249 90.46 92.459)"/><path style="fill:#e0e0e0;fill-opacity:1;stroke-linecap:round;paint-order:stroke markers fill" d="M64.797 4.784h-19.8V32.7H74.62l.134-18.588c-.058-9.246-.055-9.318-9.958-9.327Z" transform="matrix(.18015 .24936 .28028 -.20249 90.46 92.459)"/></g><g style="fill:#e0e0e0;fill-opacity:1"><path style="fill:#e0e0e0;fill-opacity:1;stroke-linecap:round;paint-order:stroke markers fill" d="M39.813 4.772h19.8v27.915H29.99L29.855 14.1c.058-9.246.055-9.319 9.958-9.327z" transform="matrix(.30215 .05776 .06492 -.33962 111.876 122.35)"/><path style="fill:#e0e0e0;fill-opacity:1;stroke-linecap:round;paint-order:stroke markers fill" d="M64.797 4.784h-19.8V32.7H74.62l.134-18.588c-.058-9.246-.055-9.318-9.958-9.327Z" transform="matrix(.30215 .05776 .06492 -.33962 111.876 122.35)"/></g><g style="fill:#e0e0e0;fill-opacity:1"><path style="fill:#e0e0e0;fill-opacity:1;stroke-linecap:round;paint-order:stroke markers fill" d="M39.813 4.772h19.8v27.915H29.99L29.855 14.1c.058-9.246.055-9.319 9.958-9.327z" transform="matrix(.25029 -.17885 -.20103 -.28133 148.872 127.807)"/><path style="fill:#e0e0e0;fill-opacity:1;stroke-linecap:round;paint-order:stroke markers fill" d="M64.797 4.784h-19.8V32.7H74.62l.134-18.588c-.058-9.246-.055-9.318-9.958-9.327Z" transform="matrix(.25029 -.17885 -.20103 -.28133 148.872 127.807)"/></g><g style="fill:#e0e0e0;fill-opacity:1"><path style="fill:#e0e0e0;fill-opacity:1;stroke-linecap:round;paint-order:stroke markers fill" d="M39.813 4.772h19.8v27.915H29.99L29.855 14.1c.058-9.246.055-9.319 9.958-9.327z" transform="matrix(-.16494 -.25967 -.29187 .18539 183.563 70.422)"/><path style="fill:#e0e0e0;fill-opacity:1;stroke-linecap:round;paint-order:stroke markers fill" d="M64.797 4.784h-19.8V32.7H74.62l.134-18.588c-.058-9.246-.055-9.318-9.958-9.327Z" transform="matrix(-.16494 -.25967 -.29187 .18539 183.563 70.422)"/></g></g></g><g style="display:inline"><g transform="matrix(.62596 -.16345 .16345 .62596 -50.892 36.735)"><circle style="fill:#e0e0e0;fill-opacity:1;stroke-width:1.67832;stroke-linecap:round" cx="137.735" cy="81.335" r="35"/><circle style="fill:#fff;stroke-width:.71764;stroke-linecap:round" cx="137.735" cy="81.335" r="14.966"/><g style="fill:#e0e0e0;fill-opacity:1"><path style="fill:#e0e0e0;fill-opacity:1;stroke-linecap:round;paint-order:stroke markers fill" d="M39.813 4.772h19.8v27.915H29.99L29.855 14.1c.058-9.246.055-9.319 9.958-9.327z" transform="matrix(.30073 .06475 -.07278 .33803 129.937 34.25)"/><path style="fill:#e0e0e0;fill-opacity:1;stroke-linecap:round;paint-order:stroke markers fill" d="M64.797 4.784h-19.8V32.7H74.62l.134-18.588c-.058-9.246-.055-9.318-9.958-9.327Z" transform="matrix(.30073 .06475 -.07278 .33803 129.937 34.25)"/></g><path style="display:inline;fill:#e0e0e0;fill-opacity:1;stroke-linecap:round;paint-order:stroke markers fill" d="M39.813 4.772h19.8v27.915H29.99L29.855 14.1c.058-9.246.055-9.319 9.958-9.327z" transform="matrix(-.259 .166 .18658 .2911 125.643 35.72)"/><path style="display:inline;fill:#e0e0e0;fill-opacity:1;stroke-linecap:round;paint-order:stroke markers fill" d="M64.797 4.784h-19.8V32.7H74.62l.134-18.588c-.058-9.246-.055-9.318-9.958-9.327Z" transform="matrix(-.259 .166 .18658 .2911 125.643 35.72)"/><g style="fill:#e0e0e0;fill-opacity:1"><path style="fill:#e0e0e0;fill-opacity:1;stroke-linecap:round;paint-order:stroke markers fill" d="M39.813 4.772h19.8v27.915H29.99L29.855 14.1c.058-9.246.055-9.319 9.958-9.327z" transform="matrix(-.069 .29979 .33696 .07755 96.984 56.541)"/><path style="fill:#e0e0e0;fill-opacity:1;stroke-linecap:round;paint-order:stroke markers fill" d="M64.797 4.784h-19.8V32.7H74.62l.134-18.588c-.058-9.246-.055-9.318-9.958-9.327Z" transform="matrix(-.069 .29979 .33696 .07755 96.984 56.541)"/></g><g style="fill:#e0e0e0;fill-opacity:1"><path style="fill:#e0e0e0;fill-opacity:1;stroke-linecap:round;paint-order:stroke markers fill" d="M39.813 4.772h19.8v27.915H29.99L29.855 14.1c.058-9.246.055-9.319 9.958-9.327z" transform="matrix(-.06787 .30004 -.33725 -.07629 185.176 74.696)"/><path style="fill:#e0e0e0;fill-opacity:1;stroke-linecap:round;paint-order:stroke markers fill" d="M64.797 4.784h-19.8V32.7H74.62l.134-18.588c-.058-9.246-.055-9.318-9.958-9.327Z" transform="matrix(-.06787 .30004 -.33725 -.07629 185.176 74.696)"/></g><g style="fill:#e0e0e0;fill-opacity:1"><path style="fill:#e0e0e0;fill-opacity:1;stroke-linecap:round;paint-order:stroke markers fill" d="M39.813 4.772h19.8v27.915H29.99L29.855 14.1c.058-9.246.055-9.319 9.958-9.327z" transform="matrix(.18015 .24936 .28028 -.20249 90.46 92.459)"/><path style="fill:#e0e0e0;fill-opacity:1;stroke-linecap:round;paint-order:stroke markers fill" d="M64.797 4.784h-19.8V32.7H74.62l.134-18.588c-.058-9.246-.055-9.318-9.958-9.327Z" transform="matrix(.18015 .24936 .28028 -.20249 90.46 92.459)"/></g><g style="fill:#e0e0e0;fill-opacity:1"><path style="fill:#e0e0e0;fill-opacity:1;stroke-linecap:round;paint-order:stroke markers fill" d="M39.813 4.772h19.8v27.915H29.99L29.855 14.1c.058-9.246.055-9.319 9.958-9.327z" transform="matrix(.30215 .05776 .06492 -.33962 111.876 122.35)"/><path style="fill:#e0e0e0;fill-opacity:1;stroke-linecap:round;paint-order:stroke markers fill" d="M64.797 4.784h-19.8V32.7H74.62l.134-18.588c-.058-9.246-.055-9.318-9.958-9.327Z" transform="matrix(.30215 .05776 .06492 -.33962 111.876 122.35)"/></g><g style="fill:#e0e0e0;fill-opacity:1"><path style="fill:#e0e0e0;fill-opacity:1;stroke-linecap:round;paint-order:stroke markers fill" d="M39.813 4.772h19.8v27.915H29.99L29.855 14.1c.058-9.246.055-9.319 9.958-9.327z" transform="matrix(.25029 -.17885 -.20103 -.28133 148.872 127.807)"/><path style="fill:#e0e0e0;fill-opacity:1;stroke-linecap:round;paint-order:stroke markers fill" d="M64.797 4.784h-19.8V32.7H74.62l.134-18.588c-.058-9.246-.055-9.318-9.958-9.327Z" transform="matrix(.25029 -.17885 -.20103 -.28133 148.872 127.807)"/></g><g style="fill:#e0e0e0;fill-opacity:1"><path style="fill:#e0e0e0;fill-opacity:1;stroke-linecap:round;paint-order:stroke markers fill" d="M39.813 4.772h19.8v27.915H29.99L29.855 14.1c.058-9.246.055-9.319 9.958-9.327z" transform="matrix(-.16494 -.25967 -.29187 .18539 183.563 70.422)"/><path style="fill:#e0e0e0;fill-opacity:1;stroke-linecap:round;paint-order:stroke markers fill" d="M64.797 4.784h-19.8V32.7H74.62l.134-18.588c-.058-9.246-.055-9.318-9.958-9.327Z" transform="matrix(-.16494 -.25967 -.29187 .18539 183.563 70.422)"/></g></g></g><g style="display:inline"><g transform="scale(.43778) rotate(11.541 304.341 117.648)"><circle style="fill:#e0e0e0;fill-opacity:1;stroke-width:1.67832;stroke-linecap:round" cx="137.735" cy="81.335" r="35"/><circle style="fill:#fff;stroke-width:.71764;stroke-linecap:round" cx="137.735" cy="81.335" r="14.966"/><g style="fill:#e0e0e0;fill-opacity:1"><path style="fill:#e0e0e0;fill-opacity:1;stroke-linecap:round;paint-order:stroke markers fill" d="M39.813 4.772h19.8v27.915H29.99L29.855 14.1c.058-9.246.055-9.319 9.958-9.327z" transform="matrix(.30073 .06475 -.07278 .33803 129.937 34.25)"/><path style="fill:#e0e0e0;fill-opacity:1;stroke-linecap:round;paint-order:stroke markers fill" d="M64.797 4.784h-19.8V32.7H74.62l.134-18.588c-.058-9.246-.055-9.318-9.958-9.327Z" transform="matrix(.30073 .06475 -.07278 .33803 129.937 34.25)"/></g><path style="display:inline;fill:#e0e0e0;fill-opacity:1;stroke-linecap:round;paint-order:stroke markers fill" d="M39.813 4.772h19.8v27.915H29.99L29.855 14.1c.058-9.246.055-9.319 9.958-9.327z" transform="matrix(-.259 .166 .18658 .2911 125.643 35.72)"/><path style="display:inline;fill:#e0e0e0;fill-opacity:1;stroke-linecap:round;paint-order:stroke markers fill" d="M64.797 4.784h-19.8V32.7H74.62l.134-18.588c-.058-9.246-.055-9.318-9.958-9.327Z" transform="matrix(-.259 .166 .18658 .2911 125.643 35.72)"/><g style="fill:#e0e0e0;fill-opacity:1"><path style="fill:#e0e0e0;fill-opacity:1;stroke-linecap:round;paint-order:stroke markers fill" d="M39.813 4.772h19.8v27.915H29.99L29.855 14.1c.058-9.246.055-9.319 9.958-9.327z" transform="matrix(-.069 .29979 .33696 .07755 96.984 56.541)"/><path style="fill:#e0e0e0;fill-opacity:1;stroke-linecap:round;paint-order:stroke markers fill" d="M64.797 4.784h-19.8V32.7H74.62l.134-18.588c-.058-9.246-.055-9.318-9.958-9.327Z" transform="matrix(-.069 .29979 .33696 .07755 96.984 56.541)"/></g><g style="fill:#e0e0e0;fill-opacity:1"><path style="fill:#e0e0e0;fill-opacity:1;stroke-linecap:round;paint-order:stroke markers fill" d="M39.813 4.772h19.8v27.915H29.99L29.855 14.1c.058-9.246.055-9.319 9.958-9.327z" transform="matrix(-.06787 .30004 -.33725 -.07629 185.176 74.696)"/><path style="fill:#e0e0e0;fill-opacity:1;stroke-linecap:round;paint-order:stroke markers fill" d="M64.797 4.784h-19.8V32.7H74.62l.134-18.588c-.058-9.246-.055-9.318-9.958-9.327Z" transform="matrix(-.06787 .30004 -.33725 -.07629 185.176 74.696)"/></g><g style="fill:#e0e0e0;fill-opacity:1"><path style="fill:#e0e0e0;fill-opacity:1;stroke-linecap:round;paint-order:stroke markers fill" d="M39.813 4.772h19.8v27.915H29.99L29.855 14.1c.058-9.246.055-9.319 9.958-9.327z" transform="matrix(.18015 .24936 .28028 -.20249 90.46 92.459)"/><path style="fill:#e0e0e0;fill-opacity:1;stroke-linecap:round;paint-order:stroke markers fill" d="M64.797 4.784h-19.8V32.7H74.62l.134-18.588c-.058-9.246-.055-9.318-9.958-9.327Z" transform="matrix(.18015 .24936 .28028 -.20249 90.46 92.459)"/></g><g style="fill:#e0e0e0;fill-opacity:1"><path style="fill:#e0e0e0;fill-opacity:1;stroke-linecap:round;paint-order:stroke markers fill" d="M39.813 4.772h19.8v27.915H29.99L29.855 14.1c.058-9.246.055-9.319 9.958-9.327z" transform="matrix(.30215 .05776 .06492 -.33962 111.876 122.35)"/><path style="fill:#e0e0e0;fill-opacity:1;stroke-linecap:round;paint-order:stroke markers fill" d="M64.797 4.784h-19.8V32.7H74.62l.134-18.588c-.058-9.246-.055-9.318-9.958-9.327Z" transform="matrix(.30215 .05776 .06492 -.33962 111.876 122.35)"/></g><g style="fill:#e0e0e0;fill-opacity:1"><path style="fill:#e0e0e0;fill-opacity:1;stroke-linecap:round;paint-order:stroke markers fill" d="M39.813 4.772h19.8v27.915H29.99L29.855 14.1c.058-9.246.055-9.319 9.958-9.327z" transform="matrix(.25029 -.17885 -.20103 -.28133 148.872 127.807)"/><path style="fill:#e0e0e0;fill-opacity:1;stroke-linecap:round;paint-order:stroke markers fill" d="M64.797 4.784h-19.8V32.7H74.62l.134-18.588c-.058-9.246-.055-9.318-9.958-9.327Z" transform="matrix(.25029 -.17885 -.20103 -.28133 148.872 127.807)"/></g><g style="fill:#e0e0e0;fill-opacity:1"><path style="fill:#e0e0e0;fill-opacity:1;stroke-linecap:round;paint-order:stroke markers fill" d="M39.813 4.772h19.8v27.915H29.99L29.855 14.1c.058-9.246.055-9.319 9.958-9.327z" transform="matrix(-.16494 -.25967 -.29187 .18539 183.563 70.422)"/><path style="fill:#e0e0e0;fill-opacity:1;stroke-linecap:round;paint-order:stroke markers fill" d="M64.797 4.784h-19.8V32.7H74.62l.134-18.588c-.058-9.246-.055-9.318-9.958-9.327Z" transform="matrix(-.16494 -.25967 -.29187 .18539 183.563 70.422)"/></g></g></g><g transform="translate(-10.371 .364)"><path style="display:inline;fill:none;stroke:#cacaca;stroke-width:1.665;stroke-linecap:butt;stroke-linejoin:miter;stroke-miterlimit:4;stroke-dasharray:none;stroke-opacity:1" d="M29.329 103.684h54.405"/><ellipse style="fill:#cacaca;fill-opacity:1;stroke-width:.973012;stroke-linecap:round;stroke-miterlimit:4;stroke-dasharray:none;paint-order:stroke markers fill" ry="7.026" rx="7.057" cy="103.684" cx="80.357"/><path style="fill:#cacaca;fill-opacity:1;stroke-width:1;stroke-linecap:round;stroke-miterlimit:4;stroke-dasharray:none;paint-order:stroke markers fill" d="M72.683 101.619h1.685v3.869h-1.685zM81.514 95.281h4.558v16.521h-4.558z"/><ellipse style="fill:#bbb;fill-opacity:1;stroke-width:1.06251;stroke-linecap:round;stroke-miterlimit:4;stroke-dasharray:none;paint-order:stroke markers fill" cx="86.058" cy="103.472" rx="1.78" ry="8.189"/><ellipse style="fill:#979797;fill-opacity:1;stroke-width:.91428;stroke-linecap:round;stroke-miterlimit:4;stroke-dasharray:none;paint-order:stroke markers fill" cx="85.727" cy="103.542" rx="1.412" ry="7.643"/><ellipse style="display:inline;fill:#424242;fill-opacity:1;stroke-width:.880341;stroke-linecap:round;stroke-miterlimit:4;stroke-dasharray:none;paint-order:stroke markers fill" cx="85.904" cy="103.277" rx=".26" ry=".671"/><ellipse style="display:inline;fill:#424242;fill-opacity:1;stroke-width:.880341;stroke-linecap:round;stroke-miterlimit:4;stroke-dasharray:none;paint-order:stroke markers fill" cx="84.813" cy="103.619" rx=".26" ry=".671"/></g><g aria-label="4 4" transform="matrix(.26458 0 0 .26458 26.987 8.746)" style="font-size:192px;line-height:1.25;font-family:Calibri;-inkscape-font-specification:Calibri;white-space:pre;shape-inside:url(#a);fill:#4f4f4f"><path d="M105.219 311.116V293.68H58.156q-8.906 0-13.406-4.032-4.406-4.03-4.406-10.968 0-1.782.656-3.563.656-1.875 1.969-3.844 1.312-2.062 2.718-3.937 1.407-1.875 3.47-4.594l49.687-66.469q4.875-6.562 7.969-9.468 3.187-3 7.593-3 14.25 0 14.25 16.312v72.563h4.031q7.22 0 11.532 1.968 4.406 1.97 4.406 8.625 0 5.438-3.563 7.97-3.562 2.437-10.687 2.437h-5.719v17.437q0 7.219-3.187 10.781-3.188 3.47-8.531 3.47-5.25 0-8.532-3.563-3.187-3.657-3.187-10.688zM64.906 272.68h40.313v-54.47zM363.313 311.116V293.68H316.25q-8.906 0-13.406-4.032-4.406-4.03-4.406-10.968 0-1.782.656-3.563.656-1.875 1.969-3.844 1.312-2.062 2.718-3.937t3.469-4.594l49.688-66.469q4.875-6.562 7.968-9.468 3.188-3 7.594-3 14.25 0 14.25 16.312v72.563h4.031q7.219 0 11.531 1.968 4.407 1.97 4.407 8.625 0 5.438-3.563 7.97-3.562 2.437-10.687 2.437h-5.719v17.437q0 7.219-3.188 10.781-3.187 3.47-8.53 3.47-5.25 0-8.532-3.563-3.188-3.657-3.188-10.688zM323 272.68h40.313v-54.47z" style="font-weight:700;font-family:'Arial Rounded MT Bold';-inkscape-font-specification:'Arial Rounded MT Bold, Bold'"/></g><path d="M151.375 178.017q0 16.015-1.953 27.539-1.953 11.523-7.227 20.898-6.64 11.524-17.187 17.774-10.547 6.25-23.438 6.25-14.843 0-26.66-8.399-11.719-8.398-17.676-23.242-3.027-8.105-4.492-17.871-1.367-9.863-1.367-21.289 0-14.746 1.563-26.563 1.562-11.816 4.882-20.312 5.762-14.063 16.7-21.387 11.035-7.422 26.27-7.422 10.058 0 18.26 3.32 8.204 3.223 14.356 9.571 6.25 6.25 10.547 15.527 7.422 16.114 7.422 45.606zm-26.758-1.953q0-17.871-2.148-29.2-2.149-11.425-7.227-17.187-5.078-5.86-14.062-5.86-12.89 0-17.97 12.989-4.98 12.988-4.98 40.039 0 18.36 2.149 30.078 2.148 11.719 7.226 17.773 5.079 5.958 13.77 5.958 8.984 0 14.063-6.25 5.078-6.25 7.128-17.872 2.051-11.62 2.051-30.468z" aria-label="0" transform="matrix(.26458 0 0 .26458 59.308 29.211)" style="font-size:200px;line-height:1.25;font-family:'Arial Rounded MT Bold';-inkscape-font-specification:'Arial Rounded MT Bold, ';white-space:pre;shape-inside:url(#b);fill:#2a2a2a"/><g transform="translate(-22.225 .53)"><ellipse style="fill:#cacaca;fill-opacity:1;stroke-width:.97073;stroke-linecap:round;stroke-miterlimit:4;stroke-dasharray:none;paint-order:stroke markers fill" cx="-123.836" cy="103.544" rx="7.024" ry="7.026" transform="scale(-1 1)"/><path style="fill:#cacaca;fill-opacity:1;stroke-width:1;stroke-linecap:round;stroke-miterlimit:4;stroke-dasharray:none;paint-order:stroke markers fill" transform="scale(-1 1)" d="M-131.477 101.479h1.685v3.869h-1.685zM-122.647 95.141h4.558v16.521h-4.558z"/><ellipse style="fill:#bbb;fill-opacity:1;stroke-width:1.06251;stroke-linecap:round;stroke-miterlimit:4;stroke-dasharray:none;paint-order:stroke markers fill" cx="-118.102" cy="103.332" rx="1.78" ry="8.189" transform="scale(-1 1)"/><ellipse style="fill:#a3a3a3;fill-opacity:1;stroke-width:.91428;stroke-linecap:round;stroke-miterlimit:4;stroke-dasharray:none;paint-order:stroke markers fill" cx="-118.433" cy="103.401" rx="1.412" ry="7.643" transform="scale(-1 1)"/><ellipse style="display:inline;fill:#424242;fill-opacity:1;stroke-width:.747049;stroke-linecap:round;stroke-miterlimit:4;stroke-dasharray:none;paint-order:stroke markers fill" cx="-118.256" cy="103.116" rx=".26" ry=".483" transform="scale(-1 1)"/><ellipse style="display:inline;fill:#424242;fill-opacity:1;stroke-width:.747049;stroke-linecap:round;stroke-miterlimit:4;stroke-dasharray:none;paint-order:stroke markers fill" cx="-112.684" cy="103.117" rx=".26" ry=".483" transform="scale(-1 1)"/><path style="fill:#424242;fill-opacity:1;stroke:none;stroke-width:3.19656;stroke-linecap:round;stroke-miterlimit:4;stroke-dasharray:none;stroke-opacity:1;paint-order:stroke markers fill" d="M112.68 102.635h5.576v.966h-5.576z"/><g transform="translate(.9 .355)"><ellipse style="display:inline;fill:#424242;fill-opacity:1;stroke-width:.747049;stroke-linecap:round;stroke-miterlimit:4;stroke-dasharray:none;paint-order:stroke markers fill" cx="-118.256" cy="103.116" rx=".26" ry=".483" transform="scale(-1 1)"/><ellipse style="display:inline;fill:#424242;fill-opacity:1;stroke-width:.747049;stroke-linecap:round;stroke-miterlimit:4;stroke-dasharray:none;paint-order:stroke markers fill" cx="-112.684" cy="103.117" rx=".26" ry=".483" transform="scale(-1 1)"/><path style="fill:#424242;fill-opacity:1;stroke:none;stroke-width:3.19656;stroke-linecap:round;stroke-miterlimit:4;stroke-dasharray:none;stroke-opacity:1;paint-order:stroke markers fill" d="M112.68 102.635h5.576v.966h-5.576z"/></g><path style="display:inline;fill:none;stroke:#cacaca;stroke-width:1.665;stroke-linecap:butt;stroke-linejoin:miter;stroke-miterlimit:4;stroke-dasharray:none;stroke-opacity:1" d="M120.17 103.187h54.406"/></g></svg>