<svg width="170mm" height="115mm" viewBox="0 0 170 115" xmlns="http://www.w3.org/2000/svg"><defs><path id="b" d="M42 68h274v332H42z"/><path id="a" d="M38 150h583v280H38z"/></defs><g transform="translate(-10.437 1.6)"><path style="display:inline;fill:none;stroke:#cacaca;stroke-width:1.665;stroke-linecap:butt;stroke-linejoin:miter;stroke-miterlimit:4;stroke-dasharray:none;stroke-opacity:1" d="M29.329 103.684h54.405"/><ellipse style="fill:#cacaca;fill-opacity:1;stroke-width:.973012;stroke-linecap:round;stroke-miterlimit:4;stroke-dasharray:none;paint-order:stroke markers fill" ry="7.026" rx="7.057" cy="103.684" cx="80.357"/><path style="fill:#cacaca;fill-opacity:1;stroke-width:1;stroke-linecap:round;stroke-miterlimit:4;stroke-dasharray:none;paint-order:stroke markers fill" d="M72.683 101.619h1.685v3.869h-1.685zM81.514 95.281h4.558v16.521h-4.558z"/><ellipse style="fill:#bbb;fill-opacity:1;stroke-width:1.06251;stroke-linecap:round;stroke-miterlimit:4;stroke-dasharray:none;paint-order:stroke markers fill" cx="86.058" cy="103.472" rx="1.78" ry="8.189"/><ellipse style="fill:#979797;fill-opacity:1;stroke-width:.91428;stroke-linecap:round;stroke-miterlimit:4;stroke-dasharray:none;paint-order:stroke markers fill" cx="85.727" cy="103.542" rx="1.412" ry="7.643"/><ellipse style="display:inline;fill:#424242;fill-opacity:1;stroke-width:.880341;stroke-linecap:round;stroke-miterlimit:4;stroke-dasharray:none;paint-order:stroke markers fill" cx="85.904" cy="103.277" rx=".26" ry=".671"/><ellipse style="display:inline;fill:#424242;fill-opacity:1;stroke-width:.880341;stroke-linecap:round;stroke-miterlimit:4;stroke-dasharray:none;paint-order:stroke markers fill" cx="84.813" cy="103.619" rx=".26" ry=".671"/></g><g transform="translate(-22.291 1.766)"><ellipse style="fill:#cacaca;fill-opacity:1;stroke-width:.97073;stroke-linecap:round;stroke-miterlimit:4;stroke-dasharray:none;paint-order:stroke markers fill" cx="-123.836" cy="103.544" rx="7.024" ry="7.026" transform="scale(-1 1)"/><path style="fill:#cacaca;fill-opacity:1;stroke-width:1;stroke-linecap:round;stroke-miterlimit:4;stroke-dasharray:none;paint-order:stroke markers fill" transform="scale(-1 1)" d="M-131.477 101.479h1.685v3.869h-1.685zM-122.647 95.141h4.558v16.521h-4.558z"/><ellipse style="fill:#bbb;fill-opacity:1;stroke-width:1.06251;stroke-linecap:round;stroke-miterlimit:4;stroke-dasharray:none;paint-order:stroke markers fill" cx="-118.102" cy="103.332" rx="1.78" ry="8.189" transform="scale(-1 1)"/><ellipse style="fill:#a3a3a3;fill-opacity:1;stroke-width:.91428;stroke-linecap:round;stroke-miterlimit:4;stroke-dasharray:none;paint-order:stroke markers fill" cx="-118.433" cy="103.401" rx="1.412" ry="7.643" transform="scale(-1 1)"/><ellipse style="display:inline;fill:#424242;fill-opacity:1;stroke-width:.747049;stroke-linecap:round;stroke-miterlimit:4;stroke-dasharray:none;paint-order:stroke markers fill" cx="-118.256" cy="103.116" rx=".26" ry=".483" transform="scale(-1 1)"/><ellipse style="display:inline;fill:#424242;fill-opacity:1;stroke-width:.747049;stroke-linecap:round;stroke-miterlimit:4;stroke-dasharray:none;paint-order:stroke markers fill" cx="-112.684" cy="103.117" rx=".26" ry=".483" transform="scale(-1 1)"/><path style="fill:#424242;fill-opacity:1;stroke:none;stroke-width:3.19656;stroke-linecap:round;stroke-miterlimit:4;stroke-dasharray:none;stroke-opacity:1;paint-order:stroke markers fill" d="M112.68 102.635h5.576v.966h-5.576z"/><g transform="translate(.9 .355)"><ellipse style="display:inline;fill:#424242;fill-opacity:1;stroke-width:.747049;stroke-linecap:round;stroke-miterlimit:4;stroke-dasharray:none;paint-order:stroke markers fill" cx="-118.256" cy="103.116" rx=".26" ry=".483" transform="scale(-1 1)"/><ellipse style="display:inline;fill:#424242;fill-opacity:1;stroke-width:.747049;stroke-linecap:round;stroke-miterlimit:4;stroke-dasharray:none;paint-order:stroke markers fill" cx="-112.684" cy="103.117" rx=".26" ry=".483" transform="scale(-1 1)"/><path style="fill:#424242;fill-opacity:1;stroke:none;stroke-width:3.19656;stroke-linecap:round;stroke-miterlimit:4;stroke-dasharray:none;stroke-opacity:1;paint-order:stroke markers fill" d="M112.68 102.635h5.576v.966h-5.576z"/></g><path style="display:inline;fill:none;stroke:#cacaca;stroke-width:1.665;stroke-linecap:butt;stroke-linejoin:miter;stroke-miterlimit:4;stroke-dasharray:none;stroke-opacity:1" d="M120.17 103.187h54.406"/></g><g style="fill:#c5d8da;fill-opacity:1"><path style="fill:#c5d8da;fill-opacity:1;stroke-width:4.10374;stroke-linecap:round" d="M405.568 504.654a85.58 85.58 0 0 0-18.968 2.737 85.58 85.58 0 0 0-61.184 104.423 85.58 85.58 0 0 0 104.426 61.184 85.58 85.58 0 0 0 61.183-104.426 85.58 85.58 0 0 0-85.457-63.918zm1.518 48.963a36.594 36.594 0 0 1 2.736.018 36.594 36.594 0 0 1 2.729.222 36.594 36.594 0 0 1 2.703.426 36.594 36.594 0 0 1 2.664.625 36.594 36.594 0 0 1 2.61.824 36.594 36.594 0 0 1 2.54 1.016 36.594 36.594 0 0 1 2.457 1.203 36.594 36.594 0 0 1 2.362 1.383 36.594 36.594 0 0 1 2.252 1.557 36.594 36.594 0 0 1 2.129 1.718 36.594 36.594 0 0 1 1.994 1.875 36.594 36.594 0 0 1 1.847 2.018 36.594 36.594 0 0 1 1.694 2.15 36.594 36.594 0 0 1 1.527 2.272 36.594 36.594 0 0 1 1.352 2.379 36.594 36.594 0 0 1 1.172 2.472 36.594 36.594 0 0 1 .984 2.553 36.594 36.594 0 0 1 .789 2.621 36.594 36.594 0 0 1 .227.914 36.594 36.594 0 0 1 .203.92 36.594 36.594 0 0 1 .177.926 36.594 36.594 0 0 1 .157.93 36.594 36.594 0 0 1 .13.933 36.594 36.594 0 0 1 .108.936 36.594 36.594 0 0 1 .082.937 36.594 36.594 0 0 1 .059.942 36.594 36.594 0 0 1 .035.941 36.594 36.594 0 0 1 .01.943 36.594 36.594 0 0 1-.014.942 36.594 36.594 0 0 1-.04.941 36.594 36.594 0 0 1-.062.94 36.594 36.594 0 0 1-.085.94 36.594 36.594 0 0 1-.112.935 36.594 36.594 0 0 1-.135.931 36.594 36.594 0 0 1-.16.93 36.594 36.594 0 0 1-.181.924 36.594 36.594 0 0 1-.207.92 36.594 36.594 0 0 1-.23.914 36.594 36.594 0 0 1-.255.906 36.594 36.594 0 0 1-.275.902 36.594 36.594 0 0 1-.301.893 36.594 36.594 0 0 1-.322.885 36.594 36.594 0 0 1-.346.877 36.594 36.594 0 0 1-.37.867 36.594 36.594 0 0 1-.388.857 36.594 36.594 0 0 1-.412.848 36.594 36.594 0 0 1-.435.836 36.594 36.594 0 0 1-.455.826 36.594 36.594 0 0 1-.477.813 36.594 36.594 0 0 1-.496.8 36.594 36.594 0 0 1-.518.788 36.594 36.594 0 0 1-.537.773 36.594 36.594 0 0 1-.558.76 36.594 36.594 0 0 1-.577.746 36.594 36.594 0 0 1-.595.728 36.594 36.594 0 0 1-.616.715 36.594 36.594 0 0 1-.632.7 36.594 36.594 0 0 1-.65.681 36.594 36.594 0 0 1-.667.664 36.594 36.594 0 0 1-.685.649 36.594 36.594 0 0 1-.701.628 36.594 36.594 0 0 1-.717.612 36.594 36.594 0 0 1-.733.594 36.594 36.594 0 0 1-.748.574 36.594 36.594 0 0 1-.761.553 36.594 36.594 0 0 1-.776.535 36.594 36.594 0 0 1-.79.513 36.594 36.594 0 0 1-.802.494 36.594 36.594 0 0 1-.816.473 36.594 36.594 0 0 1-.826.451 36.594 36.594 0 0 1-.838.432 36.594 36.594 0 0 1-.85.408 36.594 36.594 0 0 1-.86.387 36.594 36.594 0 0 1-.868.365 36.594 36.594 0 0 1-.88.342 36.594 36.594 0 0 1-.884.318 36.594 36.594 0 0 1-.894.297 36.594 36.594 0 0 1-.903.272 36.594 36.594 0 0 1-.908.25 36.594 36.594 0 0 1-2.672.591 36.594 36.594 0 0 1-2.709.391 36.594 36.594 0 0 1-2.73.188 36.594 36.594 0 0 1-2.737-.018 36.594 36.594 0 0 1-2.728-.22 36.594 36.594 0 0 1-2.703-.427 36.594 36.594 0 0 1-2.664-.626 36.594 36.594 0 0 1-2.61-.823 36.594 36.594 0 0 1-2.54-1.015 36.594 36.594 0 0 1-2.458-1.203 36.594 36.594 0 0 1-2.361-1.385 36.594 36.594 0 0 1-2.252-1.555 36.594 36.594 0 0 1-2.129-1.72 36.594 36.594 0 0 1-1.994-1.874 36.594 36.594 0 0 1-1.848-2.02 36.594 36.594 0 0 1-1.693-2.15 36.594 36.594 0 0 1-1.525-2.27 36.594 36.594 0 0 1-1.354-2.378 36.594 36.594 0 0 1-1.172-2.473 36.594 36.594 0 0 1-.984-2.554 36.594 36.594 0 0 1-.79-2.62 36.594 36.594 0 0 1-.591-2.671 36.594 36.594 0 0 1-.39-2.71 36.594 36.594 0 0 1-.188-2.73 36.594 36.594 0 0 1 .017-2.736 36.594 36.594 0 0 1 .223-2.727 36.594 36.594 0 0 1 .424-2.705 36.594 36.594 0 0 1 .627-2.664 36.594 36.594 0 0 1 .822-2.61 36.594 36.594 0 0 1 1.018-2.54 36.594 36.594 0 0 1 1.203-2.457 36.594 36.594 0 0 1 1.383-2.362 36.594 36.594 0 0 1 1.556-2.252 36.594 36.594 0 0 1 1.719-2.127 36.594 36.594 0 0 1 1.875-1.994 36.594 36.594 0 0 1 2.018-1.85 36.594 36.594 0 0 1 2.15-1.69 36.594 36.594 0 0 1 2.271-1.528 36.594 36.594 0 0 1 2.377-1.354 36.594 36.594 0 0 1 2.475-1.171 36.594 36.594 0 0 1 2.553-.983 36.594 36.594 0 0 1 2.62-.79 36.594 36.594 0 0 1 2.673-.593 36.594 36.594 0 0 1 2.707-.39 36.594 36.594 0 0 1 2.73-.188z" transform="matrix(.26458 0 0 .26458 -61.626 -89.623)"/><g style="fill:#c5d8da;fill-opacity:1"><path style="fill:#c5d8da;fill-opacity:1;stroke-linecap:round;paint-order:stroke markers fill" d="M39.813 4.772h19.8v27.915H29.99L29.855 14.1c.058-9.246.055-9.319 9.958-9.327z" transform="matrix(.19883 -.00862 .0097 .22349 33.806 38.335)"/><path style="fill:#c5d8da;fill-opacity:1;stroke-linecap:round;paint-order:stroke markers fill" d="M64.797 4.784h-19.8V32.7H74.62l.134-18.588c-.058-9.246-.055-9.318-9.958-9.327Z" transform="matrix(.19883 -.00862 .0097 .22349 33.806 38.335)"/></g><path style="display:inline;fill:#c5d8da;fill-opacity:1;stroke-width:.210995;stroke-linecap:round;paint-order:stroke markers fill" d="m88.394 136.125-2.673 2.896 4.589 4.235 3.999-4.332-3.038-2.84c-1.527-1.394-1.539-1.406-2.877.041z" transform="translate(-61.626 -89.623)"/><path style="display:inline;fill:#c5d8da;fill-opacity:1;stroke-width:.210995;stroke-linecap:round;paint-order:stroke markers fill" d="m85.023 139.78 2.673-2.895 4.589 4.236-4 4.332-3.073-2.8c-1.512-1.412-1.524-1.423-.189-2.872z" transform="translate(-61.626 -89.623)"/><g style="fill:#c5d8da;fill-opacity:1"><path style="fill:#c5d8da;fill-opacity:1;stroke-linecap:round;paint-order:stroke markers fill" d="M39.813 4.772h19.8v27.915H29.99L29.855 14.1c.058-9.246.055-9.319 9.958-9.327z" transform="matrix(.00581 .19893 .2236 -.00653 16.822 57.674)"/><path style="fill:#c5d8da;fill-opacity:1;stroke-linecap:round;paint-order:stroke markers fill" d="M64.797 4.784h-19.8V32.7H74.62l.134-18.588c-.058-9.246-.055-9.318-9.958-9.327Z" transform="matrix(.00581 .19893 .2236 -.00653 16.822 57.674)"/></g><g style="fill:#c5d8da;fill-opacity:1"><path style="fill:#c5d8da;fill-opacity:1;stroke-linecap:round;paint-order:stroke markers fill" d="M39.813 4.772h19.8v27.915H29.99L29.855 14.1c.058-9.246.055-9.319 9.958-9.327z" transform="matrix(.00656 .1989 -.22357 .00737 74.994 54.623)"/><path style="fill:#c5d8da;fill-opacity:1;stroke-linecap:round;paint-order:stroke markers fill" d="M64.797 4.784h-19.8V32.7H74.62l.134-18.588c-.058-9.246-.055-9.318-9.958-9.327Z" transform="matrix(.00656 .1989 -.22357 .00737 74.994 54.623)"/></g><g style="fill:#c5d8da;fill-opacity:1"><path style="fill:#c5d8da;fill-opacity:1;stroke-linecap:round;paint-order:stroke markers fill" d="M39.813 4.772h19.8v27.915H29.99L29.855 14.1c.058-9.246.055-9.319 9.958-9.327z" transform="matrix(.15352 .12664 .14235 -.17256 18.608 81.223)"/><path style="fill:#c5d8da;fill-opacity:1;stroke-linecap:round;paint-order:stroke markers fill" d="M64.797 4.784h-19.8V32.7H74.62l.134-18.588c-.058-9.246-.055-9.318-9.958-9.327Z" transform="matrix(.15352 .12664 .14235 -.17256 18.608 81.223)"/></g><g style="fill:#c5d8da;fill-opacity:1"><path style="fill:#c5d8da;fill-opacity:1;stroke-linecap:round;paint-order:stroke markers fill" d="M39.813 4.772h19.8v27.915H29.99L29.855 14.1c.058-9.246.055-9.319 9.958-9.327z" transform="matrix(.19858 -.01323 -.01487 -.2232 36.9 96.433)"/><path style="fill:#c5d8da;fill-opacity:1;stroke-linecap:round;paint-order:stroke markers fill" d="M64.797 4.784h-19.8V32.7H74.62l.134-18.588c-.058-9.246-.055-9.318-9.958-9.327Z" transform="matrix(.19858 -.01323 -.01487 -.2232 36.9 96.433)"/></g><g style="fill:#c5d8da;fill-opacity:1"><path style="fill:#c5d8da;fill-opacity:1;stroke-linecap:round;paint-order:stroke markers fill" d="M39.813 4.772h19.8v27.915H29.99L29.855 14.1c.058-9.246.055-9.319 9.958-9.327z" transform="matrix(.12744 -.15286 -.17182 -.14324 60.95 93.802)"/><path style="fill:#c5d8da;fill-opacity:1;stroke-linecap:round;paint-order:stroke markers fill" d="M64.797 4.784h-19.8V32.7H74.62l.134-18.588c-.058-9.246-.055-9.318-9.958-9.327Z" transform="matrix(.12744 -.15286 -.17182 -.14324 60.95 93.802)"/></g><g style="fill:#c5d8da;fill-opacity:1"><path style="fill:#c5d8da;fill-opacity:1;stroke-linecap:round;paint-order:stroke markers fill" d="M39.813 4.772h19.8v27.915H29.99L29.855 14.1c.058-9.246.055-9.319 9.958-9.327z" transform="matrix(-.14569 -.13558 -.1524 .16375 73.286 52.211)"/><path style="fill:#c5d8da;fill-opacity:1;stroke-linecap:round;paint-order:stroke markers fill" d="M64.797 4.784h-19.8V32.7H74.62l.134-18.588c-.058-9.246-.055-9.318-9.958-9.327Z" transform="matrix(-.14569 -.13558 -.1524 .16375 73.286 52.211)"/></g></g><g style="fill:#95c4c8;fill-opacity:1"><path style="fill:#95c4c8;fill-opacity:1;stroke-width:4.10374;stroke-linecap:round" d="M405.568 504.654a85.58 85.58 0 0 0-18.968 2.737 85.58 85.58 0 0 0-61.184 104.423 85.58 85.58 0 0 0 104.426 61.184 85.58 85.58 0 0 0 61.183-104.426 85.58 85.58 0 0 0-85.457-63.918zm1.518 48.963a36.594 36.594 0 0 1 2.736.018 36.594 36.594 0 0 1 2.729.222 36.594 36.594 0 0 1 2.703.426 36.594 36.594 0 0 1 2.664.625 36.594 36.594 0 0 1 2.61.824 36.594 36.594 0 0 1 2.54 1.016 36.594 36.594 0 0 1 2.457 1.203 36.594 36.594 0 0 1 2.362 1.383 36.594 36.594 0 0 1 2.252 1.557 36.594 36.594 0 0 1 2.129 1.718 36.594 36.594 0 0 1 1.994 1.875 36.594 36.594 0 0 1 1.847 2.018 36.594 36.594 0 0 1 1.694 2.15 36.594 36.594 0 0 1 1.527 2.272 36.594 36.594 0 0 1 1.352 2.379 36.594 36.594 0 0 1 1.172 2.472 36.594 36.594 0 0 1 .984 2.553 36.594 36.594 0 0 1 .789 2.621 36.594 36.594 0 0 1 .227.914 36.594 36.594 0 0 1 .203.92 36.594 36.594 0 0 1 .177.926 36.594 36.594 0 0 1 .157.93 36.594 36.594 0 0 1 .13.933 36.594 36.594 0 0 1 .108.936 36.594 36.594 0 0 1 .082.937 36.594 36.594 0 0 1 .059.942 36.594 36.594 0 0 1 .035.941 36.594 36.594 0 0 1 .01.943 36.594 36.594 0 0 1-.014.942 36.594 36.594 0 0 1-.04.941 36.594 36.594 0 0 1-.062.94 36.594 36.594 0 0 1-.085.94 36.594 36.594 0 0 1-.112.935 36.594 36.594 0 0 1-.135.931 36.594 36.594 0 0 1-.16.93 36.594 36.594 0 0 1-.181.924 36.594 36.594 0 0 1-.207.92 36.594 36.594 0 0 1-.23.914 36.594 36.594 0 0 1-.255.906 36.594 36.594 0 0 1-.275.902 36.594 36.594 0 0 1-.301.893 36.594 36.594 0 0 1-.322.885 36.594 36.594 0 0 1-.346.877 36.594 36.594 0 0 1-.37.867 36.594 36.594 0 0 1-.388.857 36.594 36.594 0 0 1-.412.848 36.594 36.594 0 0 1-.435.836 36.594 36.594 0 0 1-.455.826 36.594 36.594 0 0 1-.477.813 36.594 36.594 0 0 1-.496.8 36.594 36.594 0 0 1-.518.788 36.594 36.594 0 0 1-.537.773 36.594 36.594 0 0 1-.558.76 36.594 36.594 0 0 1-.577.746 36.594 36.594 0 0 1-.595.728 36.594 36.594 0 0 1-.616.715 36.594 36.594 0 0 1-.632.7 36.594 36.594 0 0 1-.65.681 36.594 36.594 0 0 1-.667.664 36.594 36.594 0 0 1-.685.649 36.594 36.594 0 0 1-.701.628 36.594 36.594 0 0 1-.717.612 36.594 36.594 0 0 1-.733.594 36.594 36.594 0 0 1-.748.574 36.594 36.594 0 0 1-.761.553 36.594 36.594 0 0 1-.776.535 36.594 36.594 0 0 1-.79.513 36.594 36.594 0 0 1-.802.494 36.594 36.594 0 0 1-.816.473 36.594 36.594 0 0 1-.826.451 36.594 36.594 0 0 1-.838.432 36.594 36.594 0 0 1-.85.408 36.594 36.594 0 0 1-.86.387 36.594 36.594 0 0 1-.868.365 36.594 36.594 0 0 1-.88.342 36.594 36.594 0 0 1-.884.318 36.594 36.594 0 0 1-.894.297 36.594 36.594 0 0 1-.903.272 36.594 36.594 0 0 1-.908.25 36.594 36.594 0 0 1-2.672.591 36.594 36.594 0 0 1-2.709.391 36.594 36.594 0 0 1-2.73.188 36.594 36.594 0 0 1-2.737-.018 36.594 36.594 0 0 1-2.728-.22 36.594 36.594 0 0 1-2.703-.427 36.594 36.594 0 0 1-2.664-.626 36.594 36.594 0 0 1-2.61-.823 36.594 36.594 0 0 1-2.54-1.015 36.594 36.594 0 0 1-2.458-1.203 36.594 36.594 0 0 1-2.361-1.385 36.594 36.594 0 0 1-2.252-1.555 36.594 36.594 0 0 1-2.129-1.72 36.594 36.594 0 0 1-1.994-1.874 36.594 36.594 0 0 1-1.848-2.02 36.594 36.594 0 0 1-1.693-2.15 36.594 36.594 0 0 1-1.525-2.27 36.594 36.594 0 0 1-1.354-2.378 36.594 36.594 0 0 1-1.172-2.473 36.594 36.594 0 0 1-.984-2.554 36.594 36.594 0 0 1-.79-2.62 36.594 36.594 0 0 1-.591-2.671 36.594 36.594 0 0 1-.39-2.71 36.594 36.594 0 0 1-.188-2.73 36.594 36.594 0 0 1 .017-2.736 36.594 36.594 0 0 1 .223-2.727 36.594 36.594 0 0 1 .424-2.705 36.594 36.594 0 0 1 .627-2.664 36.594 36.594 0 0 1 .822-2.61 36.594 36.594 0 0 1 1.018-2.54 36.594 36.594 0 0 1 1.203-2.457 36.594 36.594 0 0 1 1.383-2.362 36.594 36.594 0 0 1 1.556-2.252 36.594 36.594 0 0 1 1.719-2.127 36.594 36.594 0 0 1 1.875-1.994 36.594 36.594 0 0 1 2.018-1.85 36.594 36.594 0 0 1 2.15-1.69 36.594 36.594 0 0 1 2.271-1.528 36.594 36.594 0 0 1 2.377-1.354 36.594 36.594 0 0 1 2.475-1.171 36.594 36.594 0 0 1 2.553-.983 36.594 36.594 0 0 1 2.62-.79 36.594 36.594 0 0 1 2.673-.593 36.594 36.594 0 0 1 2.707-.39 36.594 36.594 0 0 1 2.73-.188z" transform="rotate(15.044 657.32 47.066) scale(.33391)"/><g style="fill:#95c4c8;fill-opacity:1"><path style="fill:#95c4c8;fill-opacity:1;stroke-linecap:round;paint-order:stroke markers fill" d="M39.813 4.772h19.8v27.915H29.99L29.855 14.1c.058-9.246.055-9.319 9.958-9.327z" transform="matrix(.24515 .05463 -.0614 .27555 109.136 18.197)"/><path style="fill:#95c4c8;fill-opacity:1;stroke-linecap:round;paint-order:stroke markers fill" d="M64.797 4.784h-19.8V32.7H74.62l.134-18.588c-.058-9.246-.055-9.318-9.958-9.327Z" transform="matrix(.24515 .05463 -.0614 .27555 109.136 18.197)"/></g><path style="display:inline;fill:#95c4c8;fill-opacity:1;stroke-width:.210995;stroke-linecap:round;paint-order:stroke markers fill" d="m88.394 136.125-2.673 2.896 4.589 4.235 3.999-4.332-3.038-2.84c-1.527-1.394-1.539-1.406-2.877.041z" transform="rotate(15.045 657.323 47.05) scale(1.26203)"/><path style="display:inline;fill:#95c4c8;fill-opacity:1;stroke-width:.210995;stroke-linecap:round;paint-order:stroke markers fill" d="m85.023 139.78 2.673-2.895 4.589 4.236-4 4.332-3.073-2.8c-1.512-1.412-1.524-1.423-.189-2.872z" transform="rotate(15.045 657.323 47.05) scale(1.26203)"/><g style="fill:#95c4c8;fill-opacity:1"><path style="fill:#95c4c8;fill-opacity:1;stroke-linecap:round;paint-order:stroke markers fill" d="M39.813 4.772h19.8v27.915H29.99L29.855 14.1c.058-9.246.055-9.319 9.958-9.327z" transform="matrix(-.05809 .24435 .27466 .0653 82.101 36.203)"/><path style="fill:#95c4c8;fill-opacity:1;stroke-linecap:round;paint-order:stroke markers fill" d="M64.797 4.784h-19.8V32.7H74.62l.134-18.588c-.058-9.246-.055-9.318-9.958-9.327Z" transform="matrix(-.05809 .24435 .27466 .0653 82.101 36.203)"/></g><g style="fill:#95c4c8;fill-opacity:1"><path style="fill:#95c4c8;fill-opacity:1;stroke-linecap:round;paint-order:stroke markers fill" d="M39.813 4.772h19.8v27.915H29.99L29.855 14.1c.058-9.246.055-9.319 9.958-9.327z" transform="matrix(-.05717 .24457 -.2749 -.06426 153.998 51.543)"/><path style="fill:#95c4c8;fill-opacity:1;stroke-linecap:round;paint-order:stroke markers fill" d="M64.797 4.784h-19.8V32.7H74.62l.134-18.588c-.058-9.246-.055-9.318-9.958-9.327Z" transform="matrix(-.05717 .24457 -.2749 -.06426 153.998 51.543)"/></g><g style="fill:#95c4c8;fill-opacity:1"><path style="fill:#95c4c8;fill-opacity:1;stroke-linecap:round;paint-order:stroke markers fill" d="M39.813 4.772h19.8v27.915H29.99L29.855 14.1c.058-9.246.055-9.319 9.958-9.327z" transform="matrix(.14562 .20464 .23002 -.16368 76.564 65.49)"/><path style="fill:#95c4c8;fill-opacity:1;stroke-linecap:round;paint-order:stroke markers fill" d="M64.797 4.784h-19.8V32.7H74.62l.134-18.588c-.058-9.246-.055-9.318-9.958-9.327Z" transform="matrix(.14562 .20464 .23002 -.16368 76.564 65.49)"/></g><g style="fill:#95c4c8;fill-opacity:1"><path style="fill:#95c4c8;fill-opacity:1;stroke-linecap:round;paint-order:stroke markers fill" d="M39.813 4.772h19.8v27.915H29.99L29.855 14.1c.058-9.246.055-9.319 9.958-9.327z" transform="matrix(.24635 .04893 .055 -.2769 93.874 90.02)"/><path style="fill:#95c4c8;fill-opacity:1;stroke-linecap:round;paint-order:stroke markers fill" d="M64.797 4.784h-19.8V32.7H74.62l.134-18.588c-.058-9.246-.055-9.318-9.958-9.327Z" transform="matrix(.24635 .04893 .055 -.2769 93.874 90.02)"/></g><g style="fill:#95c4c8;fill-opacity:1"><path style="fill:#95c4c8;fill-opacity:1;stroke-linecap:round;paint-order:stroke markers fill" d="M39.813 4.772h19.8v27.915H29.99L29.855 14.1c.058-9.246.055-9.319 9.958-9.327z" transform="matrix(.2054 -.14455 -.16248 -.23087 124.047 94.692)"/><path style="fill:#95c4c8;fill-opacity:1;stroke-linecap:round;paint-order:stroke markers fill" d="M64.797 4.784h-19.8V32.7H74.62l.134-18.588c-.058-9.246-.055-9.318-9.958-9.327Z" transform="matrix(.2054 -.14455 -.16248 -.23087 124.047 94.692)"/></g><g style="fill:#95c4c8;fill-opacity:1"><path style="fill:#95c4c8;fill-opacity:1;stroke-linecap:round;paint-order:stroke markers fill" d="M39.813 4.772h19.8v27.915H29.99L29.855 14.1c.058-9.246.055-9.319 9.958-9.327z" transform="matrix(-.13314 -.21297 -.23938 .14965 152.707 48.043)"/><path style="fill:#95c4c8;fill-opacity:1;stroke-linecap:round;paint-order:stroke markers fill" d="M64.797 4.784h-19.8V32.7H74.62l.134-18.588c-.058-9.246-.055-9.318-9.958-9.327Z" transform="matrix(-.13314 -.21297 -.23938 .14965 152.707 48.043)"/></g></g><g style="fill:#b0d3d6;fill-opacity:1"><path style="fill:#b0d3d6;fill-opacity:1;stroke-width:4.10374;stroke-linecap:round" d="M405.568 504.654a85.58 85.58 0 0 0-18.968 2.737 85.58 85.58 0 0 0-61.184 104.423 85.58 85.58 0 0 0 104.426 61.184 85.58 85.58 0 0 0 61.183-104.426 85.58 85.58 0 0 0-85.457-63.918zm1.518 48.963a36.594 36.594 0 0 1 2.736.018 36.594 36.594 0 0 1 2.729.222 36.594 36.594 0 0 1 2.703.426 36.594 36.594 0 0 1 2.664.625 36.594 36.594 0 0 1 2.61.824 36.594 36.594 0 0 1 2.54 1.016 36.594 36.594 0 0 1 2.457 1.203 36.594 36.594 0 0 1 2.362 1.383 36.594 36.594 0 0 1 2.252 1.557 36.594 36.594 0 0 1 2.129 1.718 36.594 36.594 0 0 1 1.994 1.875 36.594 36.594 0 0 1 1.847 2.018 36.594 36.594 0 0 1 1.694 2.15 36.594 36.594 0 0 1 1.527 2.272 36.594 36.594 0 0 1 1.352 2.379 36.594 36.594 0 0 1 1.172 2.472 36.594 36.594 0 0 1 .984 2.553 36.594 36.594 0 0 1 .789 2.621 36.594 36.594 0 0 1 .227.914 36.594 36.594 0 0 1 .203.92 36.594 36.594 0 0 1 .177.926 36.594 36.594 0 0 1 .157.93 36.594 36.594 0 0 1 .13.933 36.594 36.594 0 0 1 .108.936 36.594 36.594 0 0 1 .082.937 36.594 36.594 0 0 1 .059.942 36.594 36.594 0 0 1 .035.941 36.594 36.594 0 0 1 .01.943 36.594 36.594 0 0 1-.014.942 36.594 36.594 0 0 1-.04.941 36.594 36.594 0 0 1-.062.94 36.594 36.594 0 0 1-.085.94 36.594 36.594 0 0 1-.112.935 36.594 36.594 0 0 1-.135.931 36.594 36.594 0 0 1-.16.93 36.594 36.594 0 0 1-.181.924 36.594 36.594 0 0 1-.207.92 36.594 36.594 0 0 1-.23.914 36.594 36.594 0 0 1-.255.906 36.594 36.594 0 0 1-.275.902 36.594 36.594 0 0 1-.301.893 36.594 36.594 0 0 1-.322.885 36.594 36.594 0 0 1-.346.877 36.594 36.594 0 0 1-.37.867 36.594 36.594 0 0 1-.388.857 36.594 36.594 0 0 1-.412.848 36.594 36.594 0 0 1-.435.836 36.594 36.594 0 0 1-.455.826 36.594 36.594 0 0 1-.477.813 36.594 36.594 0 0 1-.496.8 36.594 36.594 0 0 1-.518.788 36.594 36.594 0 0 1-.537.773 36.594 36.594 0 0 1-.558.76 36.594 36.594 0 0 1-.577.746 36.594 36.594 0 0 1-.595.728 36.594 36.594 0 0 1-.616.715 36.594 36.594 0 0 1-.632.7 36.594 36.594 0 0 1-.65.681 36.594 36.594 0 0 1-.667.664 36.594 36.594 0 0 1-.685.649 36.594 36.594 0 0 1-.701.628 36.594 36.594 0 0 1-.717.612 36.594 36.594 0 0 1-.733.594 36.594 36.594 0 0 1-.748.574 36.594 36.594 0 0 1-.761.553 36.594 36.594 0 0 1-.776.535 36.594 36.594 0 0 1-.79.513 36.594 36.594 0 0 1-.802.494 36.594 36.594 0 0 1-.816.473 36.594 36.594 0 0 1-.826.451 36.594 36.594 0 0 1-.838.432 36.594 36.594 0 0 1-.85.408 36.594 36.594 0 0 1-.86.387 36.594 36.594 0 0 1-.868.365 36.594 36.594 0 0 1-.88.342 36.594 36.594 0 0 1-.884.318 36.594 36.594 0 0 1-.894.297 36.594 36.594 0 0 1-.903.272 36.594 36.594 0 0 1-.908.25 36.594 36.594 0 0 1-2.672.591 36.594 36.594 0 0 1-2.709.391 36.594 36.594 0 0 1-2.73.188 36.594 36.594 0 0 1-2.737-.018 36.594 36.594 0 0 1-2.728-.22 36.594 36.594 0 0 1-2.703-.427 36.594 36.594 0 0 1-2.664-.626 36.594 36.594 0 0 1-2.61-.823 36.594 36.594 0 0 1-2.54-1.015 36.594 36.594 0 0 1-2.458-1.203 36.594 36.594 0 0 1-2.361-1.385 36.594 36.594 0 0 1-2.252-1.555 36.594 36.594 0 0 1-2.129-1.72 36.594 36.594 0 0 1-1.994-1.874 36.594 36.594 0 0 1-1.848-2.02 36.594 36.594 0 0 1-1.693-2.15 36.594 36.594 0 0 1-1.525-2.27 36.594 36.594 0 0 1-1.354-2.378 36.594 36.594 0 0 1-1.172-2.473 36.594 36.594 0 0 1-.984-2.554 36.594 36.594 0 0 1-.79-2.62 36.594 36.594 0 0 1-.591-2.671 36.594 36.594 0 0 1-.39-2.71 36.594 36.594 0 0 1-.188-2.73 36.594 36.594 0 0 1 .017-2.736 36.594 36.594 0 0 1 .223-2.727 36.594 36.594 0 0 1 .424-2.705 36.594 36.594 0 0 1 .627-2.664 36.594 36.594 0 0 1 .822-2.61 36.594 36.594 0 0 1 1.018-2.54 36.594 36.594 0 0 1 1.203-2.457 36.594 36.594 0 0 1 1.383-2.362 36.594 36.594 0 0 1 1.556-2.252 36.594 36.594 0 0 1 1.719-2.127 36.594 36.594 0 0 1 1.875-1.994 36.594 36.594 0 0 1 2.018-1.85 36.594 36.594 0 0 1 2.15-1.69 36.594 36.594 0 0 1 2.271-1.528 36.594 36.594 0 0 1 2.377-1.354 36.594 36.594 0 0 1 2.475-1.171 36.594 36.594 0 0 1 2.553-.983 36.594 36.594 0 0 1 2.62-.79 36.594 36.594 0 0 1 2.673-.593 36.594 36.594 0 0 1 2.707-.39 36.594 36.594 0 0 1 2.73-.188z" transform="scale(.17772) rotate(39.325 1044.732 333.845)"/><g style="fill:#b0d3d6;fill-opacity:1"><path style="fill:#b0d3d6;fill-opacity:1;stroke-linecap:round;paint-order:stroke markers fill" d="M39.813 4.772h19.8v27.915H29.99L29.855 14.1c.058-9.246.055-9.319 9.958-9.327z" transform="matrix(.10698 .08015 -.0901 .12025 74.759 2.881)"/><path style="fill:#b0d3d6;fill-opacity:1;stroke-linecap:round;paint-order:stroke markers fill" d="M64.797 4.784h-19.8V32.7H74.62l.134-18.588c-.058-9.246-.055-9.318-9.958-9.327Z" transform="matrix(.10698 .08015 -.0901 .12025 74.759 2.881)"/></g><path style="display:inline;fill:#b0d3d6;fill-opacity:1;stroke-width:.210995;stroke-linecap:round;paint-order:stroke markers fill" d="m88.394 136.125-2.673 2.896 4.589 4.235 3.999-4.332-3.038-2.84c-1.527-1.394-1.539-1.406-2.877.041z" transform="scale(.67168) rotate(39.325 276.419 88.33)"/><path style="display:inline;fill:#b0d3d6;fill-opacity:1;stroke-width:.210995;stroke-linecap:round;paint-order:stroke markers fill" d="m85.023 139.78 2.673-2.895 4.589 4.236-4 4.332-3.073-2.8c-1.512-1.412-1.524-1.423-.189-2.872z" transform="scale(.67168) rotate(39.325 276.419 88.33)"/><g style="fill:#b0d3d6;fill-opacity:1"><path style="fill:#b0d3d6;fill-opacity:1;stroke-linecap:round;paint-order:stroke markers fill" d="M39.813 4.772h19.8v27.915H29.99L29.855 14.1c.058-9.246.055-9.319 9.958-9.327z" transform="matrix(-.08166 .10584 .11896 .09178 57.703 5.7)"/><path style="fill:#b0d3d6;fill-opacity:1;stroke-linecap:round;paint-order:stroke markers fill" d="M64.797 4.784h-19.8V32.7H74.62l.134-18.588c-.058-9.246-.055-9.318-9.958-9.327Z" transform="matrix(-.08166 .10584 .11896 .09178 57.703 5.7)"/></g><g style="fill:#b0d3d6;fill-opacity:1"><path style="fill:#b0d3d6;fill-opacity:1;stroke-linecap:round;paint-order:stroke markers fill" d="M39.813 4.772h19.8v27.915H29.99L29.855 14.1c.058-9.246.055-9.319 9.958-9.327z" transform="matrix(-.08126 .10614 -.1193 -.09134 89.226 28.877)"/><path style="fill:#b0d3d6;fill-opacity:1;stroke-linecap:round;paint-order:stroke markers fill" d="M64.797 4.784h-19.8V32.7H74.62l.134-18.588c-.058-9.246-.055-9.318-9.958-9.327Z" transform="matrix(-.08126 .10614 -.1193 -.09134 89.226 28.877)"/></g><g style="fill:#b0d3d6;fill-opacity:1"><path style="fill:#b0d3d6;fill-opacity:1;stroke-linecap:round;paint-order:stroke markers fill" d="M39.813 4.772h19.8v27.915H29.99L29.855 14.1c.058-9.246.055-9.319 9.958-9.327z" transform="matrix(.02586 .13115 .14741 -.02907 48.607 18.697)"/><path style="fill:#b0d3d6;fill-opacity:1;stroke-linecap:round;paint-order:stroke markers fill" d="M64.797 4.784h-19.8V32.7H74.62l.134-18.588c-.058-9.246-.055-9.318-9.958-9.327Z" transform="matrix(.02586 .13115 .14741 -.02907 48.607 18.697)"/></g><g style="fill:#b0d3d6;fill-opacity:1"><path style="fill:#b0d3d6;fill-opacity:1;stroke-linecap:round;paint-order:stroke markers fill" d="M39.813 4.772h19.8v27.915H29.99L29.855 14.1c.058-9.246.055-9.319 9.958-9.327z" transform="matrix(.10881 .07765 .08728 -.1223 51.637 34.386)"/><path style="fill:#b0d3d6;fill-opacity:1;stroke-linecap:round;paint-order:stroke markers fill" d="M64.797 4.784h-19.8V32.7H74.62l.134-18.588c-.058-9.246-.055-9.318-9.958-9.327Z" transform="matrix(.10881 .07765 .08728 -.1223 51.637 34.386)"/></g><g style="fill:#b0d3d6;fill-opacity:1"><path style="fill:#b0d3d6;fill-opacity:1;stroke-linecap:round;paint-order:stroke markers fill" d="M39.813 4.772h19.8v27.915H29.99L29.855 14.1c.058-9.246.055-9.319 9.958-9.327z" transform="matrix(.13128 -.02518 -.0283 -.14756 65.253 43.256)"/><path style="fill:#b0d3d6;fill-opacity:1;stroke-linecap:round;paint-order:stroke markers fill" d="M64.797 4.784h-19.8V32.7H74.62l.134-18.588c-.058-9.246-.055-9.318-9.958-9.327Z" transform="matrix(.13128 -.02518 -.0283 -.14756 65.253 43.256)"/></g><g style="fill:#b0d3d6;fill-opacity:1"><path style="fill:#b0d3d6;fill-opacity:1;stroke-linecap:round;paint-order:stroke markers fill" d="M39.813 4.772h19.8v27.915H29.99L29.855 14.1c.058-9.246.055-9.319 9.958-9.327z" transform="matrix(-.01799 -.13246 -.14889 .02022 89.366 26.896)"/><path style="fill:#b0d3d6;fill-opacity:1;stroke-linecap:round;paint-order:stroke markers fill" d="M64.797 4.784h-19.8V32.7H74.62l.134-18.588c-.058-9.246-.055-9.318-9.958-9.327Z" transform="matrix(-.01799 -.13246 -.14889 .02022 89.366 26.896)"/></g></g><g aria-label="4 4" transform="matrix(.26458 0 0 .26458 26.446 9.548)" style="font-size:192px;line-height:1.25;font-family:Calibri;-inkscape-font-specification:Calibri;white-space:pre;shape-inside:url(#a);fill:#c7470b;fill-opacity:1"><path d="M105.219 311.116V293.68H58.156q-8.906 0-13.406-4.032-4.406-4.03-4.406-10.968 0-1.782.656-3.563.656-1.875 1.969-3.844 1.312-2.062 2.718-3.937 1.407-1.875 3.47-4.594l49.687-66.469q4.875-6.562 7.969-9.468 3.187-3 7.593-3 14.25 0 14.25 16.312v72.563h4.031q7.22 0 11.532 1.968 4.406 1.97 4.406 8.625 0 5.438-3.563 7.97-3.562 2.437-10.687 2.437h-5.719v17.437q0 7.219-3.187 10.781-3.188 3.47-8.531 3.47-5.25 0-8.532-3.563-3.187-3.657-3.187-10.688zM64.906 272.68h40.313v-54.47zM363.313 311.116V293.68H316.25q-8.906 0-13.406-4.032-4.406-4.03-4.406-10.968 0-1.782.656-3.563.656-1.875 1.969-3.844 1.312-2.062 2.718-3.937t3.469-4.594l49.688-66.469q4.875-6.562 7.968-9.468 3.188-3 7.594-3 14.25 0 14.25 16.312v72.563h4.031q7.219 0 11.531 1.968 4.407 1.97 4.407 8.625 0 5.438-3.563 7.97-3.562 2.437-10.687 2.437h-5.719v17.437q0 7.219-3.188 10.781-3.187 3.47-8.53 3.47-5.25 0-8.532-3.563-3.188-3.657-3.188-10.688zM323 272.68h40.313v-54.47z" style="font-weight:700;font-family:'Arial Rounded MT Bold';-inkscape-font-specification:'Arial Rounded MT Bold, Bold';fill:#c7470b;fill-opacity:1"/></g><g style="font-size:200px;line-height:1.25;font-family:'Arial Rounded MT Bold';-inkscape-font-specification:'Arial Rounded MT Bold, ';white-space:pre;shape-inside:url(#b);fill:#fff;fill-opacity:1;stroke:none;stroke-opacity:1"><path d="M151.375 178.017q0 16.015-1.953 27.539-1.953 11.523-7.227 20.898-6.64 11.524-17.187 17.774-10.547 6.25-23.438 6.25-14.843 0-26.66-8.399-11.719-8.398-17.676-23.242-3.027-8.105-4.492-17.871-1.367-9.863-1.367-21.289 0-14.746 1.563-26.563 1.562-11.816 4.882-20.312 5.762-14.063 16.7-21.387 11.035-7.422 26.27-7.422 10.058 0 18.26 3.32 8.204 3.223 14.356 9.571 6.25 6.25 10.547 15.527 7.422 16.114 7.422 45.606zm-26.758-1.953q0-17.871-2.148-29.2-2.149-11.425-7.227-17.187-5.078-5.86-14.062-5.86-12.89 0-17.97 12.989-4.98 12.988-4.98 40.039 0 18.36 2.149 30.078 2.148 11.719 7.226 17.773 5.079 5.958 13.77 5.958 8.984 0 14.063-6.25 5.078-6.25 7.128-17.872 2.051-11.62 2.051-30.468z" style="fill:#fff;fill-opacity:1;stroke:none;stroke-opacity:1" aria-label="0" transform="matrix(.26458 0 0 .26458 58.766 30.014)"/></g></svg>