<svg width="114mm" height="117mm" viewBox="0 0 114 117" xmlns:xlink="http://www.w3.org/1999/xlink" xmlns="http://www.w3.org/2000/svg"><defs><linearGradient id="a"><stop style="stop-color:#bb6b3d;stop-opacity:1" offset="0"/><stop style="stop-color:#ca845d;stop-opacity:1" offset="1"/></linearGradient><linearGradient xlink:href="#a" id="b" gradientUnits="userSpaceOnUse" x1="112.419" y1="227.497" x2="40.429" y2="176.216" gradientTransform="translate(-36.08 -144.322)"/></defs><path style="fill:url(#b);fill-opacity:1;stroke-width:.264583" d="M31.921 115.116a55.116 55.116 0 0 1-.479-2.05l-.347-1.588-.002-5.027-.002-5.027.482-2.25c.66-3.082 1.599-5.836 2.813-8.252l1.022-2.034-.629-2.478c-.902-3.555-1.635-8.324-1.988-12.94l-.307-4.009.112-3.138.112-3.139-1.073-.275c-4.911-1.26-10.133-3.511-13.808-5.953l-2.153-1.43-2.016-1.884-2.017-1.883-1.525-2.287-1.526-2.288-.377-1.154-.377-1.154-.543-.21c-.299-.117-.96-.368-1.468-.56-.508-.19-1.39-.767-1.96-1.28l-1.035-.934-.617-1.323-.617-1.322-.002-1.456c0-.8.12-1.886.266-2.413l.266-.959 1.111-1.262 1.111-1.263 1.333-.62 1.333-.621 1.323-.01 1.323-.008.885-1.305c.487-.718 1.81-2.188 2.938-3.267l2.053-1.96 2.062-1.392c5.653-3.815 13.44-6.49 21.652-7.437l2.602-.3 5.6.133 5.6.132 3.157.565 3.157.564.212-.334c.117-.184.214-.82.217-1.412.006-1.628.776-5.818 1.48-8.05l.625-1.985.82-.992.821-.992H64.878l.701.761.702.762.588 1.475c.323.811.823 2.641 1.11 4.067l.522 2.592.288 3.677c.158 2.023.358 3.792.444 3.93l.156.254 1.38-2.635c.759-1.45 2.01-3.548 2.782-4.664l1.403-2.029 1.528-1.414 1.527-1.414.68-.13.679-.13.514.36.514.36.318.964.318.964-.177 2.173c-.22 2.724-.932 5.743-2.277 9.665l-1.047 3.052 1.476 1.56c.811.859 1.923 2.224 2.471 3.034 1.509 2.232 4.88 8.8 6.108 11.904 2.27 5.73 3.887 13.145 4.509 20.657l.317 3.837-.163 4.246c-.175 4.538-.7 9.174-1.451 12.82l-.464 2.248 1.146 1.782c1.367 2.124 2.476 4.654 3.319 7.574.34 1.178.682 2.206.76 2.284.078.078.926-.384 1.885-1.027l1.743-1.169 1.525-.57a32.426 32.426 0 0 1 3.259-.978l1.733-.408 2.778.125c1.528.068 2.99.214 3.25.323l.473.198-2.037.885c-2.756 1.198-4.659 2.498-6.73 4.596l-1.737 1.76-1.366 2.08-1.366 2.081-.827 1.987c-.914 2.196-2.095 6.564-2.095 7.748v.76H32.053Zm9.357-52.055 1.19-.305-.027-3.156-.027-3.156-.445-1.183c-.244-.65-.7-1.454-1.01-1.786l-.567-.602h-1.478l-.917.917-.917.917-.792 1.662c-.765 1.607-1.89 5.374-1.89 6.331v.467l.86.14c1.828.295 2.225.317 3.506.19a20.207 20.207 0 0 0 2.514-.436zm11.349-31.504.806-.679.242-.876.242-.876-.134-.7-.134-.701-.716-.767-.717-.767-.928-.175-.929-.174-.948.396-.948.397-.484.738-.483.738.026 1.18.026 1.181.962.882.962.881h2.349l.806-.678zM45.5 27.569c.403-.238.927-.762 1.165-1.165l.433-.733v-1.664l-.402-.776-.401-.777-.776-.4-.776-.402h-1.64l-.776.401-.777.401-.401.777-.401.776v1.664l.45.761.449.76.807.4c.444.218 1.146.4 1.56.404l.753.006.733-.433z"/></svg>