<svg width="125mm" height="170mm" viewBox="0 0 125 170" xmlns:xlink="http://www.w3.org/1999/xlink" xmlns="http://www.w3.org/2000/svg"><defs><linearGradient id="r"><stop style="stop-color:#ffcfab;stop-opacity:1" offset="0"/><stop style="stop-color:#f18d73;stop-opacity:1" offset="1"/></linearGradient><linearGradient id="s"><stop style="stop-color:#3a3a3a;stop-opacity:1" offset="0"/><stop style="stop-color:#010101;stop-opacity:1" offset="1"/></linearGradient><linearGradient xlink:href="#a" id="u" x1="89.99" y1="90.551" x2="87.698" y2="99.11" gradientUnits="userSpaceOnUse" gradientTransform="translate(-48.86 -40.105)"/><linearGradient id="a"><stop style="stop-color:#ef8068;stop-opacity:1" offset="0"/><stop style="stop-color:#f8bc99;stop-opacity:1" offset="1"/></linearGradient><linearGradient id="b"><stop style="stop-color:#fa916e;stop-opacity:1" offset="0"/><stop style="stop-color:#fa916d;stop-opacity:0" offset="1"/></linearGradient><linearGradient xlink:href="#c" id="z" gradientUnits="userSpaceOnUse" gradientTransform="matrix(1.0894 0 0 1 -12.484 -8.555)" x1="75.158" y1="29.642" x2="76.529" y2="27.833"/><linearGradient id="c"><stop style="stop-color:#fac7a4;stop-opacity:0" offset="0"/><stop style="stop-color:#fa916d;stop-opacity:1" offset="1"/></linearGradient><linearGradient xlink:href="#d" id="A" gradientUnits="userSpaceOnUse" gradientTransform="matrix(-1 0 0 1 151.258 -8.555)" x1="79.722" y1="27.136" x2="83.046" y2="28.211"/><linearGradient id="d"><stop style="stop-color:#bf5c21;stop-opacity:1" offset="0"/><stop style="stop-color:#863211;stop-opacity:1" offset="1"/></linearGradient><linearGradient xlink:href="#e" id="B" x1="54.267" y1="29.689" x2="54.256" y2="26.555" gradientUnits="userSpaceOnUse"/><linearGradient id="e"><stop style="stop-color:#fa9370;stop-opacity:1" offset="0"/><stop style="stop-color:#ffcfab;stop-opacity:1" offset="1"/></linearGradient><linearGradient xlink:href="#f" id="C" x1="54.703" y1="17.992" x2="45.442" y2="39.224" gradientUnits="userSpaceOnUse" gradientTransform="translate(-33.033 -5.137)"/><linearGradient id="f"><stop style="stop-color:#f22751;stop-opacity:1" offset="0"/><stop style="stop-color:#b80b2e;stop-opacity:1" offset="1"/></linearGradient><linearGradient xlink:href="#g" id="D" x1="66.963" y1="23.609" x2="72.001" y2="46.838" gradientUnits="userSpaceOnUse" gradientTransform="translate(-42.095 -10.826)"/><linearGradient id="g"><stop style="stop-color:#d1173d;stop-opacity:1" offset="0"/><stop style="stop-color:#af0c2e;stop-opacity:1" offset="1"/></linearGradient><linearGradient xlink:href="#g" id="E" gradientUnits="userSpaceOnUse" x1="57.394" y1="30.351" x2="62.194" y2="30.351" gradientTransform="translate(-32.694 -6.814)"/><linearGradient xlink:href="#h" id="F" gradientUnits="userSpaceOnUse" gradientTransform="matrix(1 0 0 -1 -40.61 63.332)" x1="58.218" y1="31.023" x2="58.265" y2="28.696"/><linearGradient id="h"><stop style="stop-color:#d1173d;stop-opacity:1" offset="0"/><stop style="stop-color:#9a0927;stop-opacity:1" offset="1"/></linearGradient><linearGradient xlink:href="#h" id="G" gradientUnits="userSpaceOnUse" gradientTransform="matrix(1 0 0 -1 -41.825 61.691)" x1="58.218" y1="31.023" x2="58.265" y2="28.696"/><linearGradient xlink:href="#g" id="H" x1="57.394" y1="30.351" x2="62.194" y2="30.351" gradientUnits="userSpaceOnUse" gradientTransform="translate(-32.981 -5.086)"/><linearGradient xlink:href="#i" id="I" x1="89.646" y1="97.835" x2="86.244" y2="87.544" gradientUnits="userSpaceOnUse" gradientTransform="translate(-43.69 -40.709)"/><linearGradient id="i"><stop style="stop-color:#39636d;stop-opacity:1" offset="0"/><stop style="stop-color:#70a8b6;stop-opacity:1" offset="1"/></linearGradient><linearGradient xlink:href="#j" id="J" x1="64.957" y1="88.048" x2="79.957" y2="88.165" gradientUnits="userSpaceOnUse" gradientTransform="matrix(1.001 0 0 1.00926 -.041 -.79)"/><linearGradient id="j"><stop style="stop-color:#a4a4a4;stop-opacity:1" offset="0"/><stop style="stop-color:#c7c7c7;stop-opacity:1" offset="1"/></linearGradient><linearGradient xlink:href="#k" id="K" gradientUnits="userSpaceOnUse" x1="68.615" y1="99.204" x2="78.905" y2="90.083" gradientTransform="translate(-.056 .136)"/><linearGradient id="k"><stop style="stop-color:#565656;stop-opacity:1" offset="0"/><stop style="stop-color:#bcbcbc;stop-opacity:1" offset="1"/></linearGradient><linearGradient xlink:href="#l" id="L" x1="85.847" y1="100.357" x2="82.352" y2="100.225" gradientUnits="userSpaceOnUse" gradientTransform="matrix(1 0 0 1.26045 0 -26.202)"/><linearGradient id="l"><stop style="stop-color:#9f9f9f;stop-opacity:1" offset="0"/><stop style="stop-color:#bcbcbc;stop-opacity:1" offset="1"/></linearGradient><linearGradient xlink:href="#c" id="x" gradientUnits="userSpaceOnUse" gradientTransform="matrix(1.0894 0 0 1 -12.484 -8.555)" x1="75.158" y1="29.642" x2="76.529" y2="27.833"/><linearGradient xlink:href="#d" id="y" gradientUnits="userSpaceOnUse" gradientTransform="matrix(-1 0 0 1 151.258 -8.555)" x1="79.722" y1="27.136" x2="83.046" y2="28.211"/><linearGradient id="q"><stop style="stop-color:#6a0000;stop-opacity:1" offset="0"/><stop style="stop-color:#ae0000;stop-opacity:1" offset="1"/></linearGradient><linearGradient id="m"><stop style="stop-color:#000;stop-opacity:.31020409" offset="0"/><stop style="stop-color:#000;stop-opacity:0" offset="1"/></linearGradient><linearGradient id="t"><stop style="stop-color:#000;stop-opacity:1" offset="0"/><stop style="stop-color:#3a3a3a;stop-opacity:1" offset="1"/></linearGradient><linearGradient id="o"><stop style="stop-color:#7c5a40;stop-opacity:1" offset="0"/><stop style="stop-color:#b68e70;stop-opacity:1" offset="1"/></linearGradient><linearGradient xlink:href="#n" id="N" x1="129.712" y1="200.074" x2="109.168" y2="159.656" gradientUnits="userSpaceOnUse"/><linearGradient id="n"><stop style="stop-color:#244246;stop-opacity:1" offset="0"/><stop style="stop-color:#152629;stop-opacity:1" offset="1"/></linearGradient><linearGradient xlink:href="#o" id="O" x1="121.255" y1="158.528" x2="111.093" y2="167.633" gradientUnits="userSpaceOnUse"/><linearGradient xlink:href="#p" id="P" gradientUnits="userSpaceOnUse" x1="129.712" y1="200.074" x2="109.168" y2="159.656" gradientTransform="matrix(-.12888 -.0939 -.0939 .12888 73.517 99.295)"/><linearGradient id="p"><stop style="stop-color:#203b3e;stop-opacity:1" offset="0"/><stop style="stop-color:#152629;stop-opacity:1" offset="1"/></linearGradient><linearGradient xlink:href="#o" id="Q" x1="25.786" y1="98.132" x2="26.384" y2="99.682" gradientUnits="userSpaceOnUse" gradientTransform="translate(17.164 10.108)"/><linearGradient xlink:href="#q" id="R" x1="42.101" y1="65.518" x2="51.944" y2="76.899" gradientUnits="userSpaceOnUse" gradientTransform="matrix(1.72035 0 0 1.72035 -12.681 -7.983)"/><linearGradient xlink:href="#r" id="S" x1="28.923" y1="90.109" x2="39.291" y2="98.646" gradientUnits="userSpaceOnUse"/><linearGradient xlink:href="#s" id="T" x1="65.785" y1="74.592" x2="77.935" y2="81.82" gradientUnits="userSpaceOnUse" gradientTransform="translate(-35.834 -2.307)"/><linearGradient xlink:href="#r" id="U" x1="31.741" y1="98.51" x2="40.268" y2="100.112" gradientUnits="userSpaceOnUse" gradientTransform="matrix(1.60935 0 0 1.72048 -7.312 -3.776)"/><linearGradient xlink:href="#t" id="V" x1="100.543" y1="80.436" x2="82.549" y2="76.437" gradientUnits="userSpaceOnUse" gradientTransform="matrix(1.60935 0 0 1.72048 -86.546 -12.535)"/><radialGradient xlink:href="#b" id="v" cx="75.923" cy="32.846" fx="75.923" fy="32.846" r="1.064" gradientTransform="matrix(1 0 0 1.02198 -24.687 -5.086)" gradientUnits="userSpaceOnUse"/><radialGradient xlink:href="#b" id="w" cx="75.923" cy="32.846" fx="75.923" fy="32.846" r="1.064" gradientTransform="matrix(1 0 0 1.02198 -18.536 -5.067)" gradientUnits="userSpaceOnUse"/><radialGradient xlink:href="#m" id="M" cx="37" cy="95.986" fx="37" fy="95.986" r="48.012" gradientTransform="matrix(1.0756 0 0 .45586 25.42 95.7)" gradientUnits="userSpaceOnUse"/></defs><g transform="translate(-1.587 3.175)"><path style="display:inline;fill:#96d1cd;fill-opacity:1;stroke-width:.319571" d="M68.668 41.818c0 17.002-1.963 36.279-17.426 36.279-15.464 0-35.131-8.458-35.131-25.46 0-8.501 4.333-19.364 9.4-24.935 5.067-5.57 16.227-11.567 23.958-11.567 15.464 0 19.2 8.681 19.2 25.683z" transform="matrix(1.72035 0 0 1.72035 -14.22 -25.193)"/><g style="display:inline;fill:#396266;fill-opacity:1"><path style="fill:#396266;fill-opacity:1;stroke-width:.490757" d="M32.307 47.554c-.918-5.449-.614-12.255-.614-12.255s5.601 4.934 7.69 9.967c1.312 3.163 3.713 11.365.134 12.756-3.53 1.372-6.648-7.136-7.21-10.468z" transform="matrix(.49363 0 0 .63735 25.532 -1.13)"/><path style="fill:#396266;fill-opacity:1;stroke-width:.419976" d="M30.138 61.359c-2.496-4.016-4.447-9.477-4.447-9.477s6.091 2.177 9.393 5.506c2.075 2.094 6.65 7.827 4.224 10.02-2.393 2.162-7.643-3.594-9.17-6.05z" transform="matrix(.49363 0 0 .63735 25.532 -1.13)"/><path style="fill:#396266;fill-opacity:1;stroke-width:.490757" d="M31.252 73.745c-3.538-4.246-6.7-10.28-6.7-10.28s7.323 1.444 11.66 4.741c2.728 2.073 8.931 7.951 6.539 10.955-2.36 2.962-9.337-2.82-11.5-5.416zM34.303 86.5c-4.14-3.66-8.182-9.143-8.182-9.143s7.456.315 12.244 2.916c3.01 1.635 10.035 6.503 8.126 9.835-1.883 3.287-9.657-1.37-12.188-3.608zM39.664 99.281c-4.691-2.92-9.589-7.655-9.589-7.655s7.406-.93 12.56.838c3.24 1.112 10.976 4.744 9.648 8.347-1.31 3.554-9.75.255-12.619-1.53zM46.41 110.833c-5.054-2.234-10.566-6.236-10.566-6.236s7.202-1.958 12.553-.93c3.364.647 11.532 3.16 10.722 6.913-.799 3.703-9.618 1.619-12.708.253zM52.91 122.316c-5.492-.612-11.953-2.772-11.953-2.772s6.281-4.032 11.694-4.66c3.402-.394 11.948-.453 12.304 3.37.35 3.772-8.687 4.435-12.045 4.062z" transform="matrix(.49363 0 0 .63735 25.532 -1.13)"/><path style="fill:#396266;fill-opacity:1;stroke-width:.419976" d="M49.226 56.117c-.039-4.729-1.31-10.386-1.31-10.386s-3.983 5.096-4.992 9.676c-.635 2.878-1.435 10.17 1.788 10.725 3.18.548 4.537-7.124 4.514-10.015z" transform="matrix(.49363 0 0 .63735 25.532 -1.13)"/><path style="fill:#396266;fill-opacity:1;stroke-width:.490757" d="M54.909 67.179c.718-5.48.164-12.27.164-12.27s-5.416 5.136-7.318 10.242c-1.196 3.21-3.295 11.495.333 12.753 3.578 1.242 6.382-7.375 6.82-10.725zM59.152 79.589c1.542-5.307 2.024-12.102 2.024-12.102s-6.132 4.254-8.788 9.012c-1.669 2.991-5 10.861-1.606 12.656 3.349 1.77 7.427-6.322 8.37-9.566zM64.724 89.964c1.67-5.268 2.317-12.05 2.317-12.05s-6.234 4.105-9.003 8.797c-1.742 2.95-5.263 10.737-1.913 12.613 3.305 1.851 7.578-6.14 8.6-9.36zM71.22 98.131c1.974-5.161 3.015-11.894 3.015-11.894s-6.462 3.735-9.5 8.258c-1.91 2.843-5.88 10.412-2.644 12.48 3.191 2.04 7.923-5.688 9.13-8.844zM78.559 107.645c2.802-4.762 4.945-11.229 4.945-11.229s-6.992 2.611-10.738 6.568c-2.355 2.487-7.524 9.293-4.677 11.869 2.81 2.541 8.757-4.296 10.47-7.208z" transform="matrix(.49363 0 0 .63735 25.532 -1.13)"/><path style="fill:#396266;fill-opacity:1;fill-rule:nonzero;stroke:none;stroke-width:1px;stroke-linecap:butt;stroke-linejoin:miter;stroke-opacity:1" d="M38.299 58.255c.391 0 .81-.002 1.096.01.133.005.254.015.359.03.098.015.183.035.253.064.067.027.12.06.163.104.04.042.07.093.092.156a.992.992 0 0 1 .046.227c.01.088.014.191.016.314.003.236-.004.541.004.944.006.382.026.861.084 1.448.11 1.112.364 2.669.974 4.815.775 2.766 1.456 5.69 2.202 8.6.754 2.944 1.553 5.77 2.6 8.51 3.039 7.793 6.614 15.028 10.77 21.35 5.603 8.527 11.28 13.904 16.272 17.376l.286-.41.285-.411c-4.885-3.398-10.497-8.645-16.1-17.047-4.159-6.234-7.763-13.383-10.857-21.117-1.094-2.681-1.951-5.459-2.773-8.38-.812-2.885-1.563-5.797-2.403-8.554-.638-2.12-.921-3.658-1.06-4.754a19.993 19.993 0 0 1-.129-1.431c-.022-.4-.03-.705-.046-.943a3.16 3.16 0 0 0-.036-.322 1.001 1.001 0 0 0-.07-.241.48.48 0 0 0-.307-.269 1.284 1.284 0 0 0-.264-.051 4.293 4.293 0 0 0-.361-.02c-.307-.005-.685.002-1.096.002z" transform="matrix(.49363 0 0 .63735 25.532 -1.13)"/></g><g style="display:inline;fill:#396266;fill-opacity:1"><path style="fill:#396266;fill-opacity:1;stroke-width:.490757" d="M32.307 47.554c-.918-5.449-.614-12.255-.614-12.255s5.601 4.934 7.69 9.967c1.312 3.163 3.713 11.365.134 12.756-3.53 1.372-6.648-7.136-7.21-10.468z" transform="matrix(-.49363 0 0 .63735 97.156 -9.338)"/><path style="fill:#396266;fill-opacity:1;stroke-width:.419976" d="M30.138 61.359c-2.496-4.016-4.447-9.477-4.447-9.477s6.091 2.177 9.393 5.506c2.075 2.094 6.65 7.827 4.224 10.02-2.393 2.162-7.643-3.594-9.17-6.05z" transform="matrix(-.49363 0 0 .63735 97.156 -9.338)"/><path style="fill:#396266;fill-opacity:1;stroke-width:.490757" d="M31.252 73.745c-3.538-4.246-6.7-10.28-6.7-10.28s7.323 1.444 11.66 4.741c2.728 2.073 8.931 7.951 6.539 10.955-2.36 2.962-9.337-2.82-11.5-5.416zM34.303 86.5c-4.14-3.66-8.182-9.143-8.182-9.143s7.456.315 12.244 2.916c3.01 1.635 10.035 6.503 8.126 9.835-1.883 3.287-9.657-1.37-12.188-3.608zM39.664 99.281c-4.691-2.92-9.589-7.655-9.589-7.655s7.406-.93 12.56.838c3.24 1.112 10.976 4.744 9.648 8.347-1.31 3.554-9.75.255-12.619-1.53zM46.41 110.833c-5.054-2.234-10.566-6.236-10.566-6.236s7.202-1.958 12.553-.93c3.364.647 11.532 3.16 10.722 6.913-.799 3.703-9.618 1.619-12.708.253zM52.91 122.316c-5.492-.612-11.953-2.772-11.953-2.772s6.281-4.032 11.694-4.66c3.402-.394 11.948-.453 12.304 3.37.35 3.772-8.687 4.435-12.045 4.062z" transform="matrix(-.49363 0 0 .63735 97.156 -9.338)"/><path style="fill:#396266;fill-opacity:1;stroke-width:.419976" d="M49.226 56.117c-.039-4.729-1.31-10.386-1.31-10.386s-3.983 5.096-4.992 9.676c-.635 2.878-1.435 10.17 1.788 10.725 3.18.548 4.537-7.124 4.514-10.015z" transform="matrix(-.49363 0 0 .63735 97.156 -9.338)"/><path style="fill:#396266;fill-opacity:1;stroke-width:.490757" d="M54.909 67.179c.718-5.48.164-12.27.164-12.27s-5.416 5.136-7.318 10.242c-1.196 3.21-3.295 11.495.333 12.753 3.578 1.242 6.382-7.375 6.82-10.725zM59.152 79.589c1.542-5.307 2.024-12.102 2.024-12.102s-6.132 4.254-8.788 9.012c-1.669 2.991-5 10.861-1.606 12.656 3.349 1.77 7.427-6.322 8.37-9.566zM64.724 89.964c1.67-5.268 2.317-12.05 2.317-12.05s-6.234 4.105-9.003 8.797c-1.742 2.95-5.263 10.737-1.913 12.613 3.305 1.851 7.578-6.14 8.6-9.36zM71.22 98.131c1.974-5.161 3.015-11.894 3.015-11.894s-6.462 3.735-9.5 8.258c-1.91 2.843-5.88 10.412-2.644 12.48 3.191 2.04 7.923-5.688 9.13-8.844zM78.559 107.645c2.802-4.762 4.945-11.229 4.945-11.229s-6.992 2.611-10.738 6.568c-2.355 2.487-7.524 9.293-4.677 11.869 2.81 2.541 8.757-4.296 10.47-7.208z" transform="matrix(-.49363 0 0 .63735 97.156 -9.338)"/><path style="fill:#396266;fill-opacity:1;fill-rule:nonzero;stroke:none;stroke-width:1px;stroke-linecap:butt;stroke-linejoin:miter;stroke-opacity:1" d="M38.299 58.255c.391 0 .81-.002 1.096.01.133.005.254.015.359.03.098.015.183.035.253.064.067.027.12.06.163.104.04.042.07.093.092.156a.992.992 0 0 1 .046.227c.01.088.014.191.016.314.003.236-.004.541.004.944.006.382.026.861.084 1.448.11 1.112.364 2.669.974 4.815.775 2.766 1.456 5.69 2.202 8.6.754 2.944 1.553 5.77 2.6 8.51 3.039 7.793 6.614 15.028 10.77 21.35 5.603 8.527 11.28 13.904 16.272 17.376l.286-.41.285-.411c-4.885-3.398-10.497-8.645-16.1-17.047-4.159-6.234-7.763-13.383-10.857-21.117-1.094-2.681-1.951-5.459-2.773-8.38-.812-2.885-1.563-5.797-2.403-8.554-.638-2.12-.921-3.658-1.06-4.754a19.993 19.993 0 0 1-.129-1.431c-.022-.4-.03-.705-.046-.943a3.16 3.16 0 0 0-.036-.322 1.001 1.001 0 0 0-.07-.241.48.48 0 0 0-.307-.269 1.284 1.284 0 0 0-.264-.051 4.293 4.293 0 0 0-.361-.02c-.307-.005-.685.002-1.096.002z" transform="matrix(-.49363 0 0 .63735 97.156 -9.338)"/></g><g style="display:inline;fill:#396266;fill-opacity:1"><path style="fill:#396266;fill-opacity:1;stroke-width:.490757" d="M32.307 47.554c-.918-5.449-.614-12.255-.614-12.255s5.601 4.934 7.69 9.967c1.312 3.163 3.713 11.365.134 12.756-3.53 1.372-6.648-7.136-7.21-10.468z" transform="matrix(-.40687 -.27952 -.3609 .52533 140.476 28.097)"/><path style="fill:#396266;fill-opacity:1;stroke-width:.419976" d="M30.138 61.359c-2.496-4.016-4.447-9.477-4.447-9.477s6.091 2.177 9.393 5.506c2.075 2.094 6.65 7.827 4.224 10.02-2.393 2.162-7.643-3.594-9.17-6.05z" transform="matrix(-.40687 -.27952 -.3609 .52533 140.476 28.097)"/><path style="fill:#396266;fill-opacity:1;stroke-width:.490757" d="M31.252 73.745c-3.538-4.246-6.7-10.28-6.7-10.28s7.323 1.444 11.66 4.741c2.728 2.073 8.931 7.951 6.539 10.955-2.36 2.962-9.337-2.82-11.5-5.416zM34.303 86.5c-4.14-3.66-8.182-9.143-8.182-9.143s7.456.315 12.244 2.916c3.01 1.635 10.035 6.503 8.126 9.835-1.883 3.287-9.657-1.37-12.188-3.608zM39.664 99.281c-4.691-2.92-9.589-7.655-9.589-7.655s7.406-.93 12.56.838c3.24 1.112 10.976 4.744 9.648 8.347-1.31 3.554-9.75.255-12.619-1.53zM46.41 110.833c-5.054-2.234-10.566-6.236-10.566-6.236s7.202-1.958 12.553-.93c3.364.647 11.532 3.16 10.722 6.913-.799 3.703-9.618 1.619-12.708.253zM52.91 122.316c-5.492-.612-11.953-2.772-11.953-2.772s6.281-4.032 11.694-4.66c3.402-.394 11.948-.453 12.304 3.37.35 3.772-8.687 4.435-12.045 4.062z" transform="matrix(-.40687 -.27952 -.3609 .52533 140.476 28.097)"/><path style="fill:#396266;fill-opacity:1;stroke-width:.419976" d="M49.226 56.117c-.039-4.729-1.31-10.386-1.31-10.386s-3.983 5.096-4.992 9.676c-.635 2.878-1.435 10.17 1.788 10.725 3.18.548 4.537-7.124 4.514-10.015z" transform="matrix(-.40687 -.27952 -.3609 .52533 140.476 28.097)"/><path style="fill:#396266;fill-opacity:1;stroke-width:.490757" d="M54.909 67.179c.718-5.48.164-12.27.164-12.27s-5.416 5.136-7.318 10.242c-1.196 3.21-3.295 11.495.333 12.753 3.578 1.242 6.382-7.375 6.82-10.725zM59.152 79.589c1.542-5.307 2.024-12.102 2.024-12.102s-6.132 4.254-8.788 9.012c-1.669 2.991-5 10.861-1.606 12.656 3.349 1.77 7.427-6.322 8.37-9.566zM64.724 89.964c1.67-5.268 2.317-12.05 2.317-12.05s-6.234 4.105-9.003 8.797c-1.742 2.95-5.263 10.737-1.913 12.613 3.305 1.851 7.578-6.14 8.6-9.36zM71.22 98.131c1.974-5.161 3.015-11.894 3.015-11.894s-6.462 3.735-9.5 8.258c-1.91 2.843-5.88 10.412-2.644 12.48 3.191 2.04 7.923-5.688 9.13-8.844zM78.559 107.645c2.802-4.762 4.945-11.229 4.945-11.229s-6.992 2.611-10.738 6.568c-2.355 2.487-7.524 9.293-4.677 11.869 2.81 2.541 8.757-4.296 10.47-7.208z" transform="matrix(-.40687 -.27952 -.3609 .52533 140.476 28.097)"/><path style="fill:#396266;fill-opacity:1;fill-rule:nonzero;stroke:none;stroke-width:1px;stroke-linecap:butt;stroke-linejoin:miter;stroke-opacity:1" d="M38.299 58.255c.391 0 .81-.002 1.096.01.133.005.254.015.359.03.098.015.183.035.253.064.067.027.12.06.163.104.04.042.07.093.092.156a.992.992 0 0 1 .046.227c.01.088.014.191.016.314.003.236-.004.541.004.944.006.382.026.861.084 1.448.11 1.112.364 2.669.974 4.815.775 2.766 1.456 5.69 2.202 8.6.754 2.944 1.553 5.77 2.6 8.51 3.039 7.793 6.614 15.028 10.77 21.35 5.603 8.527 11.28 13.904 16.272 17.376l.286-.41.285-.411c-4.885-3.398-10.497-8.645-16.1-17.047-4.159-6.234-7.763-13.383-10.857-21.117-1.094-2.681-1.951-5.459-2.773-8.38-.812-2.885-1.563-5.797-2.403-8.554-.638-2.12-.921-3.658-1.06-4.754a19.993 19.993 0 0 1-.129-1.431c-.022-.4-.03-.705-.046-.943a3.16 3.16 0 0 0-.036-.322 1.001 1.001 0 0 0-.07-.241.48.48 0 0 0-.307-.269 1.284 1.284 0 0 0-.264-.051 4.293 4.293 0 0 0-.361-.02c-.307-.005-.685.002-1.096.002z" transform="matrix(-.40687 -.27952 -.3609 .52533 140.476 28.097)"/></g><g style="display:inline;fill:#396266;fill-opacity:1"><path style="fill:#396266;fill-opacity:1;stroke-width:.490757" d="M32.307 47.554c-.918-5.449-.614-12.255-.614-12.255s5.601 4.934 7.69 9.967c1.312 3.163 3.713 11.365.134 12.756-3.53 1.372-6.648-7.136-7.21-10.468z" transform="matrix(-.27934 -.32506 -.4071 .3021 148.575 62.783)"/><path style="fill:#396266;fill-opacity:1;stroke-width:.419976" d="M30.138 61.359c-2.496-4.016-4.447-9.477-4.447-9.477s6.091 2.177 9.393 5.506c2.075 2.094 6.65 7.827 4.224 10.02-2.393 2.162-7.643-3.594-9.17-6.05z" transform="matrix(-.27934 -.32506 -.4071 .3021 148.575 62.783)"/><path style="fill:#396266;fill-opacity:1;stroke-width:.490757" d="M31.252 73.745c-3.538-4.246-6.7-10.28-6.7-10.28s7.323 1.444 11.66 4.741c2.728 2.073 8.931 7.951 6.539 10.955-2.36 2.962-9.337-2.82-11.5-5.416zM34.303 86.5c-4.14-3.66-8.182-9.143-8.182-9.143s7.456.315 12.244 2.916c3.01 1.635 10.035 6.503 8.126 9.835-1.883 3.287-9.657-1.37-12.188-3.608zM39.664 99.281c-4.691-2.92-9.589-7.655-9.589-7.655s7.406-.93 12.56.838c3.24 1.112 10.976 4.744 9.648 8.347-1.31 3.554-9.75.255-12.619-1.53zM46.41 110.833c-5.054-2.234-10.566-6.236-10.566-6.236s7.202-1.958 12.553-.93c3.364.647 11.532 3.16 10.722 6.913-.799 3.703-9.618 1.619-12.708.253zM52.91 122.316c-5.492-.612-11.953-2.772-11.953-2.772s6.281-4.032 11.694-4.66c3.402-.394 11.948-.453 12.304 3.37.35 3.772-8.687 4.435-12.045 4.062z" transform="matrix(-.27934 -.32506 -.4071 .3021 148.575 62.783)"/><path style="fill:#396266;fill-opacity:1;stroke-width:.419976" d="M49.226 56.117c-.039-4.729-1.31-10.386-1.31-10.386s-3.983 5.096-4.992 9.676c-.635 2.878-1.435 10.17 1.788 10.725 3.18.548 4.537-7.124 4.514-10.015z" transform="matrix(-.27934 -.32506 -.4071 .3021 148.575 62.783)"/><path style="fill:#396266;fill-opacity:1;stroke-width:.490757" d="M54.909 67.179c.718-5.48.164-12.27.164-12.27s-5.416 5.136-7.318 10.242c-1.196 3.21-3.295 11.495.333 12.753 3.578 1.242 6.382-7.375 6.82-10.725zM59.152 79.589c1.542-5.307 2.024-12.102 2.024-12.102s-6.132 4.254-8.788 9.012c-1.669 2.991-5 10.861-1.606 12.656 3.349 1.77 7.427-6.322 8.37-9.566zM64.724 89.964c1.67-5.268 2.317-12.05 2.317-12.05s-6.234 4.105-9.003 8.797c-1.742 2.95-5.263 10.737-1.913 12.613 3.305 1.851 7.578-6.14 8.6-9.36zM71.22 98.131c1.974-5.161 3.015-11.894 3.015-11.894s-6.462 3.735-9.5 8.258c-1.91 2.843-5.88 10.412-2.644 12.48 3.191 2.04 7.923-5.688 9.13-8.844zM78.559 107.645c2.802-4.762 4.945-11.229 4.945-11.229s-6.992 2.611-10.738 6.568c-2.355 2.487-7.524 9.293-4.677 11.869 2.81 2.541 8.757-4.296 10.47-7.208z" transform="matrix(-.27934 -.32506 -.4071 .3021 148.575 62.783)"/><path style="fill:#396266;fill-opacity:1;fill-rule:nonzero;stroke:none;stroke-width:1px;stroke-linecap:butt;stroke-linejoin:miter;stroke-opacity:1" d="M38.299 58.255c.391 0 .81-.002 1.096.01.133.005.254.015.359.03.098.015.183.035.253.064.067.027.12.06.163.104.04.042.07.093.092.156a.992.992 0 0 1 .046.227c.01.088.014.191.016.314.003.236-.004.541.004.944.006.382.026.861.084 1.448.11 1.112.364 2.669.974 4.815.775 2.766 1.456 5.69 2.202 8.6.754 2.944 1.553 5.77 2.6 8.51 3.039 7.793 6.614 15.028 10.77 21.35 5.603 8.527 11.28 13.904 16.272 17.376l.286-.41.285-.411c-4.885-3.398-10.497-8.645-16.1-17.047-4.159-6.234-7.763-13.383-10.857-21.117-1.094-2.681-1.951-5.459-2.773-8.38-.812-2.885-1.563-5.797-2.403-8.554-.638-2.12-.921-3.658-1.06-4.754a19.993 19.993 0 0 1-.129-1.431c-.022-.4-.03-.705-.046-.943a3.16 3.16 0 0 0-.036-.322 1.001 1.001 0 0 0-.07-.241.48.48 0 0 0-.307-.269 1.284 1.284 0 0 0-.264-.051 4.293 4.293 0 0 0-.361-.02c-.307-.005-.685.002-1.096.002z" transform="matrix(-.27934 -.32506 -.4071 .3021 148.575 62.783)"/></g><g style="display:inline;fill:#396266;fill-opacity:1"><path style="fill:#396266;fill-opacity:1;stroke-width:.490757" d="M32.307 47.554c-.918-5.449-.614-12.255-.614-12.255s5.601 4.934 7.69 9.967c1.312 3.163 3.713 11.365.134 12.756-3.53 1.372-6.648-7.136-7.21-10.468z" transform="matrix(.3905 -.30195 .38986 .5042 -17.85 38.181)"/><path style="fill:#396266;fill-opacity:1;stroke-width:.419976" d="M30.138 61.359c-2.496-4.016-4.447-9.477-4.447-9.477s6.091 2.177 9.393 5.506c2.075 2.094 6.65 7.827 4.224 10.02-2.393 2.162-7.643-3.594-9.17-6.05z" transform="matrix(.3905 -.30195 .38986 .5042 -17.85 38.181)"/><path style="fill:#396266;fill-opacity:1;stroke-width:.490757" d="M31.252 73.745c-3.538-4.246-6.7-10.28-6.7-10.28s7.323 1.444 11.66 4.741c2.728 2.073 8.931 7.951 6.539 10.955-2.36 2.962-9.337-2.82-11.5-5.416zM34.303 86.5c-4.14-3.66-8.182-9.143-8.182-9.143s7.456.315 12.244 2.916c3.01 1.635 10.035 6.503 8.126 9.835-1.883 3.287-9.657-1.37-12.188-3.608zM39.664 99.281c-4.691-2.92-9.589-7.655-9.589-7.655s7.406-.93 12.56.838c3.24 1.112 10.976 4.744 9.648 8.347-1.31 3.554-9.75.255-12.619-1.53zM46.41 110.833c-5.054-2.234-10.566-6.236-10.566-6.236s7.202-1.958 12.553-.93c3.364.647 11.532 3.16 10.722 6.913-.799 3.703-9.618 1.619-12.708.253zM52.91 122.316c-5.492-.612-11.953-2.772-11.953-2.772s6.281-4.032 11.694-4.66c3.402-.394 11.948-.453 12.304 3.37.35 3.772-8.687 4.435-12.045 4.062z" transform="matrix(.3905 -.30195 .38986 .5042 -17.85 38.181)"/><path style="fill:#396266;fill-opacity:1;stroke-width:.419976" d="M49.226 56.117c-.039-4.729-1.31-10.386-1.31-10.386s-3.983 5.096-4.992 9.676c-.635 2.878-1.435 10.17 1.788 10.725 3.18.548 4.537-7.124 4.514-10.015z" transform="matrix(.3905 -.30195 .38986 .5042 -17.85 38.181)"/><path style="fill:#396266;fill-opacity:1;stroke-width:.490757" d="M54.909 67.179c.718-5.48.164-12.27.164-12.27s-5.416 5.136-7.318 10.242c-1.196 3.21-3.295 11.495.333 12.753 3.578 1.242 6.382-7.375 6.82-10.725zM59.152 79.589c1.542-5.307 2.024-12.102 2.024-12.102s-6.132 4.254-8.788 9.012c-1.669 2.991-5 10.861-1.606 12.656 3.349 1.77 7.427-6.322 8.37-9.566zM64.724 89.964c1.67-5.268 2.317-12.05 2.317-12.05s-6.234 4.105-9.003 8.797c-1.742 2.95-5.263 10.737-1.913 12.613 3.305 1.851 7.578-6.14 8.6-9.36zM71.22 98.131c1.974-5.161 3.015-11.894 3.015-11.894s-6.462 3.735-9.5 8.258c-1.91 2.843-5.88 10.412-2.644 12.48 3.191 2.04 7.923-5.688 9.13-8.844zM78.559 107.645c2.802-4.762 4.945-11.229 4.945-11.229s-6.992 2.611-10.738 6.568c-2.355 2.487-7.524 9.293-4.677 11.869 2.81 2.541 8.757-4.296 10.47-7.208z" transform="matrix(.3905 -.30195 .38986 .5042 -17.85 38.181)"/><path style="fill:#396266;fill-opacity:1;fill-rule:nonzero;stroke:none;stroke-width:1px;stroke-linecap:butt;stroke-linejoin:miter;stroke-opacity:1" d="M38.299 58.255c.391 0 .81-.002 1.096.01.133.005.254.015.359.03.098.015.183.035.253.064.067.027.12.06.163.104.04.042.07.093.092.156a.992.992 0 0 1 .046.227c.01.088.014.191.016.314.003.236-.004.541.004.944.006.382.026.861.084 1.448.11 1.112.364 2.669.974 4.815.775 2.766 1.456 5.69 2.202 8.6.754 2.944 1.553 5.77 2.6 8.51 3.039 7.793 6.614 15.028 10.77 21.35 5.603 8.527 11.28 13.904 16.272 17.376l.286-.41.285-.411c-4.885-3.398-10.497-8.645-16.1-17.047-4.159-6.234-7.763-13.383-10.857-21.117-1.094-2.681-1.951-5.459-2.773-8.38-.812-2.885-1.563-5.797-2.403-8.554-.638-2.12-.921-3.658-1.06-4.754a19.993 19.993 0 0 1-.129-1.431c-.022-.4-.03-.705-.046-.943a3.16 3.16 0 0 0-.036-.322 1.001 1.001 0 0 0-.07-.241.48.48 0 0 0-.307-.269 1.284 1.284 0 0 0-.264-.051 4.293 4.293 0 0 0-.361-.02c-.307-.005-.685.002-1.096.002z" transform="matrix(.3905 -.30195 .38986 .5042 -17.85 38.181)"/></g><path style="fill:url(#u);fill-opacity:1;stroke:none;stroke-width:.264583px;stroke-linecap:butt;stroke-linejoin:miter;stroke-opacity:1" d="M43.163 52.048c-.527 2.028-1.338 4.648-2.525 7.074l-2.9-.047s1.22-6.72 1.94-10.102z" transform="matrix(1.72035 0 0 1.72035 -14.22 -25.193)"/><path style="fill:#f7aa8b;fill-opacity:1;stroke:none;stroke-width:.264583px;stroke-linecap:butt;stroke-linejoin:miter;stroke-opacity:1" d="m99.977 90.154-4.184 2.785c.36 2.528.056 4.354.48 7.087l3.803.116c.696-3.356.881-6.965-.1-9.988z" transform="matrix(1.72035 0 0 1.72035 -89.695 -95.047)"/><path style="fill:#ffcfab;stroke-width:.165" d="M42.372 35.901h7.811V46.94h-7.81z" transform="matrix(1.72035 0 0 1.72035 -14.437 -24.207)"/><path style="display:inline;fill:#b87467;fill-opacity:.470803;stroke-width:.274494" d="M62.814 22.953a5.664 7.709 0 0 1-5.664 7.708 5.664 7.709 0 0 1-5.664-7.708 5.664 7.709 0 0 1 5.664-7.709 5.664 7.709 0 0 1 5.664 7.709z" transform="matrix(1.72035 0 0 1.72035 -33.895 -12.031)"/><path style="display:inline;fill:#ffcfab;stroke-width:.274494" d="M60.24 26.451a5.664 7.709 0 0 1-5.663 7.709 5.664 7.709 0 0 1-5.664-7.709 5.664 7.709 0 0 1 5.664-7.708 5.664 7.709 0 0 1 5.663 7.708z" transform="matrix(1.72035 0 0 1.72035 -30.492 -18.846)"/><path style="fill:url(#v);stroke-width:.264583" d="M52.3 28.481a1.064 1.087 0 0 1-1.064 1.088 1.064 1.087 0 0 1-1.064-1.088 1.064 1.087 0 0 1 1.064-1.087 1.064 1.087 0 0 1 1.064 1.087z" transform="matrix(1.72035 0 0 1.72035 -30.492 -18.846)"/><path style="fill:url(#w);stroke-width:.264583" d="M58.451 28.5a1.064 1.087 0 0 1-1.064 1.088 1.064 1.087 0 0 1-1.064-1.087 1.064 1.087 0 0 1 1.064-1.088 1.064 1.087 0 0 1 1.064 1.088z" transform="matrix(1.72035 0 0 1.72035 -30.492 -18.846)"/><path style="fill:url(#x);stroke-width:.276157" d="M68.457 19.226s.838-.356 1.29-.386c.598-.038 1.772.287 1.772.287v3.985h-3.135z" transform="matrix(1.72035 0 0 1.72035 -62.403 -10.055)"/><path style="fill:url(#y);fill-opacity:1;stroke-width:.264583" d="M71.536 18.581s-1.653-.237-2.316.037c-.82.34-1.008 1.038-1.008 1.038s.801-.511 1.257-.607c.67-.14 2.05.078 2.05.078z" transform="matrix(1.72035 0 0 1.72035 -62.403 -10.055)"/><path style="fill:#dba38d;fill-opacity:1;fill-rule:nonzero;stroke:none;stroke-width:.264583px;stroke-linecap:butt;stroke-linejoin:miter;stroke-opacity:1" d="M68.434 28.295c-.481-.048-1.907-.396-2.389-.444l-.02.206-.02.207c.482.047 1.948-.017 2.43.03z" transform="matrix(1.72035 0 0 1.72035 -57.487 -19.529)"/><path style="fill:#682815;fill-opacity:1;stroke-width:.264583" d="M68.634 27.114c0 .686-.5 1.024-1.116 1.024-.53 0-1.058-.193-1.172-.744-.018-.09-.784-.632-.784-.632s.775-.01.841-.167c.177-.427.665-.723 1.115-.723.616 0 1.116.556 1.116 1.242z" transform="matrix(1.72035 0 0 1.72035 -57.487 -19.529)"/><path style="fill:#fff" d="M68.634 27.114c.036 1.123-.388 1.266-1.443 1.05-.682-.14-.954-.25-.79-.949.118-.5.447-1.166 1.142-1.166.695 0 1.068.347 1.091 1.065z" transform="matrix(1.72035 0 0 1.72035 -57.487 -19.529)"/><path style="fill:#4d7a7d;stroke-width:.264583" d="M68.648 27.066a.938 1.033 0 0 1-.938 1.033.938 1.033 0 0 1-.937-1.033.938 1.033 0 0 1 .937-1.032.938 1.033 0 0 1 .938 1.032z" transform="matrix(1.72035 0 0 1.72035 -57.487 -19.529)"/><path style="fill:url(#z);stroke-width:.276157" d="M68.457 19.226s.838-.356 1.29-.386c.598-.038 1.772.287 1.772.287v3.985h-3.135z" transform="matrix(-1.72035 0 0 1.72035 188.52 -10.143)"/><path style="fill:url(#A);fill-opacity:1;stroke-width:.264583" d="M71.536 18.581s-1.653-.237-2.316.037c-.82.34-1.008 1.038-1.008 1.038s.801-.511 1.257-.607c.67-.14 2.05.078 2.05.078z" transform="matrix(-1.72035 0 0 1.72035 188.52 -10.143)"/><path style="fill:#dba38d;fill-opacity:1;fill-rule:nonzero;stroke:none;stroke-width:.264583px;stroke-linecap:butt;stroke-linejoin:miter;stroke-opacity:1" d="M68.434 28.295c-.481-.048-1.907-.396-2.389-.444l-.02.206-.02.207c.482.047 1.948-.017 2.43.03z" transform="matrix(-1.72035 0 0 1.72035 183.604 -19.617)"/><path style="fill:#682815;fill-opacity:1;stroke-width:.264583" d="M68.634 27.114c0 .686-.5 1.024-1.116 1.024-.53 0-1.058-.193-1.172-.744-.018-.09-.784-.632-.784-.632s.775-.01.841-.167c.177-.427.665-.723 1.115-.723.616 0 1.116.556 1.116 1.242z" transform="matrix(-1.72035 0 0 1.72035 183.604 -19.617)"/><path style="fill:#fff" d="M68.634 27.114c.036 1.123-.388 1.266-1.443 1.05-.682-.14-.954-.25-.79-.949.118-.5.447-1.166 1.142-1.166.695 0 1.068.347 1.091 1.065z" transform="matrix(-1.72035 0 0 1.72035 183.604 -19.617)"/><path style="fill:#4d7a7d;stroke-width:.264583" d="M68.648 27.066a.938 1.033 0 0 1-.938 1.033.938 1.033 0 0 1-.937-1.033.938 1.033 0 0 1 .937-1.032.938 1.033 0 0 1 .938 1.032z" transform="matrix(-1.72035 0 0 1.72035 183.604 -19.617)"/><path style="fill:#fff;fill-opacity:1;stroke:none;stroke-width:.257153;stroke-opacity:1" d="M52.526 31.279s1.012.147 1.518.103c.968-.084 2.83-.699 2.83-.699-2.021 2.456-3.772 1.444-4.348.596z" transform="matrix(1.72035 0 0 1.72035 -30.492 -18.846)"/><path style="fill:url(#B);fill-opacity:1;stroke-width:.165" d="M53.385 23.827h1.941s-.661 3.464-.35 5.16c.035.193.318.353.245.535-.149.372-.717.463-1.117.444-.29-.014-.67-.127-.777-.397-.067-.169.153-.333.182-.512.276-1.722-.124-5.23-.124-5.23z" transform="matrix(1.72035 0 0 1.72035 -30.492 -18.846)"/><path style="display:inline;fill:url(#C);fill-opacity:1;stroke:none;stroke-width:.264583px;stroke-linecap:butt;stroke-linejoin:miter;stroke-opacity:1" d="m23.035 14.31 1.839-1.393c.078-1.533-3.872-.968-5.14-.704-4.91 1.071-4.62 4.115-4.62 4.115.015 3.801.963 4.402.336 5.682-.46.985-.89 2.214-.798 3.363.12 1.521 1.973 3.615 1.744 4.233-.544 1.359-1.72 1.198-1.487 2.751.233 1.553 3.197 2.818 3.197 2.818s.117-.635 1.156-1.77c.953-1.041 2.56-1.58 2.56-1.58s-.406-2.006-.425-2.813c-2.22-.267-2.474-1.003-3.35-1.954-.926-1.004-1.772-3.694-1.772-3.694-.072-.773-.19-3.464-.19-3.464s.194.854 0 0c.007-.871.788-2.775 1.558-3.565 1.226-1.17 4.03-2.228 5.392-2.026z" transform="matrix(1.72035 0 0 1.72035 26.185 -9.903)"/><path style="display:inline;fill:url(#D);fill-opacity:1;fill-rule:nonzero;stroke:none;stroke-width:.264583px;stroke-linecap:butt;stroke-linejoin:miter;stroke-opacity:1" d="M24.869 12.783s.422-.099.884.206c1.016.672 2.135 1.631 2.989 3.727.854 2.097.388 3.766.233 5.086-.155 1.32-.777 1.942.427 2.68 3.625 2.5 3.246 5.28.777 7.22-1.002.662-.447 2.617-.272 4.31-1.826-1.446-2.84-2.904-3.373-3.87-.647-1.658-1.708-2.496-2.223-4.136 1.903-1.65 2.429-3.992 2.412-5.388-.039-2.136-.039-3.3-.776-4.698-.738-1.398-1.515-2.601-2.213-3.106l-.7-.505z" transform="matrix(1.72035 0 0 1.72035 26.185 -9.903)"/><path style="display:inline;fill:#9a0927;fill-opacity:1;stroke:none;stroke-width:.264583px;stroke-linecap:butt;stroke-linejoin:miter;stroke-opacity:1" d="M30.446 27.525c-.094 1.661-3.912 4.617-3.912 4.617s-2.099-2.982-2.223-4.136c1.473-1.285 2.065-2.603 2.28-3.966 3.054 1.036 3.903 1.966 3.855 3.485z" transform="matrix(1.72035 0 0 1.72035 26.185 -9.903)"/><path style="fill:#9a0927;fill-opacity:1;stroke:none;stroke-width:.264583px;stroke-linecap:butt;stroke-linejoin:miter;stroke-opacity:1" d="M16.275 23.364c-.85 1.56.31 3.513 1.595 4.928.598.66 1.827 2.096 1.024 2.685-1.277.825-1.476 1.713-1.496 2.76-.011.534.708 1.438.708 1.438s1.23-1.732 1.794-2.14c1.241-.899 1.935-1.224 1.923-1.21l-.426-2.813c-1.203-.11-2.17-.76-2.958-1.546-1.095-1.091-1.597-2.784-2.164-4.102Z" transform="matrix(1.72035 0 0 1.72035 26.185 -9.903)"/><path style="fill:none;stroke:url(#E);stroke-width:.165;stroke-linecap:butt;stroke-linejoin:miter;stroke-miterlimit:4;stroke-dasharray:none;stroke-opacity:.974453" d="M26.988 23.385c.422.85 1.837 1.105 1.852 2.018.03 1.712-3.456 2.114-3.34 3.902.435 1.776 2.417 3.447 3.969 4.068" transform="matrix(1.72035 0 0 1.72035 26.185 -9.903)"/><path style="fill:none;stroke:url(#F);stroke-width:.165;stroke-linecap:butt;stroke-linejoin:miter;stroke-miterlimit:4;stroke-dasharray:none;stroke-opacity:.974453" d="M18.123 34.965c-.654-3.878 3.275-3.998 1.82-5.254-1.787-1.542-7.316-4.188-3.85-6.413" transform="matrix(1.72035 0 0 1.72035 26.185 -9.903)"/><path style="fill:none;stroke:url(#G);stroke-width:.165;stroke-linecap:butt;stroke-linejoin:miter;stroke-miterlimit:4;stroke-dasharray:none;stroke-opacity:.974453" d="M18.123 34.965c-.654-3.878 2.059-5.638.604-6.894-1.37-1.184-3.132-1.278-3.319-4.118-.056-.86.523-3.294.148-4.728" transform="matrix(1.72035 0 0 1.72035 26.185 -9.903)"/><path style="fill:none;stroke:url(#H);stroke-width:.165;stroke-linecap:butt;stroke-linejoin:miter;stroke-miterlimit:4;stroke-dasharray:none;stroke-opacity:.974453" d="M24.485 15.39s1.087 2.04 1.29 2.977c.603 2.218.192 5.063.926 6.747.421.85 1.462 1.38 1.455 2.282-.008 1.122-1.967 1.023-1.852 2.811.435 1.776.664 2.488 2.216 3.109" transform="matrix(1.72035 0 0 1.72035 26.185 -9.903)"/><path style="fill:url(#I);fill-opacity:1;stroke:none;stroke-width:.264583px;stroke-linecap:butt;stroke-linejoin:miter;stroke-opacity:1" d="m44.216 40.851 2.116 3.857 3.877-4.13c3.013 3.7 3.51-.052 6.847 8.256L52.3 52.207l.009-1.009s.31 1.81.316 2.3c.013 1.059-.101 3.174-.101 3.174l-7.54 3.076-.034-.827c.53-1.582.206-3.018-.343-4.373-.273-.677-1.058-1.025-1.393-1.688-.526-.973-.394-1.67-.148-2.669 0 .034-.12.592-.104 1.213.012.496-.143-.33-.143-.33-.976-.828-2.912-2.522-2.912-2.522s.149-1.365.57-2.397c.888-2.284 2.042-4.59 3.738-5.304z" transform="matrix(1.72035 0 0 1.72035 -14.437 -24.207)"/><g style="fill:none;fill-opacity:1;stroke:#173541;stroke-opacity:1"><path style="fill:none;fill-opacity:1;stroke:#173541;stroke-width:.239997;stroke-opacity:1" d="M77.44 31.573c-.397.647-.933.996-2.113.996-.602 0-1.26-.037-1.689-.506-.37-.405-.492-1.15-.507-1.76-.01-.465-.018-.928.324-1.356.341-.428.959-.698 1.635-.698.611 0 2.525.099 2.525.099s.366 2.341-.175 3.225zM79.505 31.602c.396.647.933.997 2.112.997.603 0 1.261-.038 1.69-.506.37-.406.492-1.15.506-1.761.01-.465.018-.928-.323-1.356-.342-.428-.959-.698-1.635-.698-.611 0-2.525.099-2.525.099s-.366 2.342.175 3.225z" transform="matrix(1.72035 0 0 1.72035 -72.14 -25.131)"/><path style="fill:none;fill-opacity:1;stroke:#173541;stroke-width:.275022px;stroke-linecap:butt;stroke-linejoin:miter;stroke-opacity:1" d="m77.625 28.37 1.699.029" transform="matrix(1.72035 0 0 1.72035 -72.14 -25.131)"/><path style="fill:none;fill-opacity:1;stroke:#173541;stroke-width:.264583px;stroke-linecap:butt;stroke-linejoin:miter;stroke-opacity:1" d="M77.724 29.431c.303-.35.406-.428.736-.432" transform="matrix(1.72035 0 0 1.72035 -72.14 -25.131)"/><path style="fill:none;fill-opacity:1;stroke:#173541;stroke-width:.265608px;stroke-linecap:butt;stroke-linejoin:miter;stroke-opacity:1" d="M79.23 29.417c-.122-.169-.252-.4-.802-.42" transform="matrix(1.72035 0 0 1.72035 -72.14 -25.131)"/></g><path style="fill:#fdc9a4;fill-opacity:1;stroke:none;stroke-width:.264583px;stroke-linecap:butt;stroke-linejoin:miter;stroke-opacity:1" d="m56.204 59.537-12.17-.132c-1.822-.808-2.042-1.507-2.481-2.158-.438-.65-.893-.157-.893-.157l-.066.199.53.264.462.1s.33.25.265.396c-.122.275-.599.194-.893.132-.306-.063-.794-.496-.794-.496l-.463-.628-.066-.463.727-.463.629-.066-1.455.033-.629.132-.099.794.165.496-.43-.033-.33-1.19-.1-.993.464-.264h1.52s1.348.298 1.92.661c.841.536 2.083 2.15 2.083 2.15l.661.066s5.28-1.883 7.14-2.06c1.88-.18 4.08.656 4.303 3.68z" transform="matrix(1.72035 0 0 1.72035 -14.22 -25.193)"/><path style="fill:url(#J);fill-opacity:1;stroke:none;stroke-width:.165845" d="M64.686 87.932c.059-.057.234-.07.234-.07h15.485s.233-.016.328.07c.095.086.12.287.12.287l1.32 12.388-15.59-.047-2-12.325s.027-.229.103-.303z" transform="matrix(1.72035 0 0 1.72035 -89.324 -95.956)"/><path style="fill:url(#K);fill-opacity:1;stroke:none;stroke-width:.165" d="M64.606 88.044c.059-.056.234-.07.234-.07h15.47s.232-.015.327.07c.095.086.12.285.12.285l1.319 12.274-15.576-.047-1.997-12.212s.027-.226.103-.3z" transform="matrix(1.72035 0 0 1.72035 -89.324 -95.956)"/><path style="fill:url(#L);fill-opacity:1;stroke-width:.212158" d="m82.106 99.875 4.464-.013-.047.744-4.356-.008z" transform="matrix(1.72035 0 0 1.72035 -89.324 -95.956)"/><path style="fill:none;stroke:#fff;stroke-width:.165" d="M36.943 85.721a.876.893 0 0 1-.877.893.876.893 0 0 1-.876-.893.876.893 0 0 1 .876-.893.876.893 0 0 1 .877.893z" transform="matrix(1.72035 0 0 1.72035 -26.883 -81.312)"/><ellipse style="fill:url(#M);fill-opacity:1;stroke:none;stroke-width:.128457;stroke-opacity:1" cx="65.217" cy="139.458" rx="51.641" ry="21.887" transform="matrix(.99998 .00682 .00242 1 0 0)"/><path style="fill:url(#N);fill-opacity:1;stroke:none;stroke-width:.264583px;stroke-linecap:butt;stroke-linejoin:miter;stroke-opacity:1" d="M104.545 130.962c-3.824 3.612-10.62 14.76-11.125 22.955-.242 3.923 7.64 11.803 10.264 18.32 2.973 7.384.055 17.033 4.859 23.38 6.65 8.788 23.044 17.814 29.325 15.27 6.53-2.646 6.46-21.381-.762-33.902-5.121-8.497-11.866-16.554-14.777-23.95-2.91-7.396-13.96-25.684-17.784-22.073z" transform="matrix(-.21616 -.1689 -.1689 .21616 89.313 118.446)"/><path style="fill:url(#O);fill-opacity:1;stroke:none;stroke-width:.264583px;stroke-linecap:butt;stroke-linejoin:miter;stroke-opacity:1" d="M105.341 132.13c-3.007 2.273-1.947 15.944-1.343 23.901.107 8.858 4.749 20.427 8.728 20.746 3.98.319 11.73-2.385 15.71-1.947 3.981.438 7.722 2.753 7.722 2.753l-9.87-14.502s-13.599-24.648-15.307-26.52c-1.709-1.873-3.822-5.806-5.64-4.432z" transform="matrix(-.21616 -.1689 -.1689 .21616 89.313 118.446)"/><path style="fill:none;stroke:#7e5a40;stroke-width:.665;stroke-linecap:round;stroke-linejoin:miter;stroke-miterlimit:4;stroke-dasharray:none;stroke-opacity:1" d="M103.73 150.19s5.707.837 7.99 4.364c4.347 6.72 13.494 20.074 13.494 20.074l.067.068" transform="matrix(-.21616 -.1689 -.1689 .21616 89.313 118.446)"/><path style="fill:url(#P);fill-opacity:1;stroke:none;stroke-width:.0421891px;stroke-linecap:butt;stroke-linejoin:miter;stroke-opacity:1" d="M47.747 106.357c.154.825-.017 2.9-.721 4.003-.338.528-2.093.804-3.043 1.398-1.077.672-1.607 2.19-2.822 2.557-1.682.508-4.642.132-5.213-.786-.593-.954 1.175-3.362 3.281-4.298 1.458-.614 3.084-1.019 4.154-1.699 1.07-.68 4.21-2 4.364-1.175z" transform="scale(1.72035) rotate(36.294 80.032 73.434)"/><path style="fill:url(#Q);fill-opacity:1;stroke:none;stroke-width:.0421891px;stroke-linecap:butt;stroke-linejoin:miter;stroke-opacity:1" d="M47.535 106.433c.174.575-1.246 2.238-2.071 3.206-.846 1.132-2.53 2.187-3.073 1.855-.543-.333-1.288-1.41-1.842-1.727-.554-.317-1.254-.37-1.254-.37l2.634-.942s4.067-1.9 4.463-1.98c.396-.081 1.038-.39 1.143-.042z" transform="scale(1.72035) rotate(36.294 80.032 73.434)"/><path style="fill:none;stroke:#7e5a40;stroke-width:.106038;stroke-linecap:round;stroke-linejoin:miter;stroke-miterlimit:4;stroke-dasharray:none;stroke-opacity:1" d="M46.047 108.912s-.814-.428-1.44-.188a207.13 207.13 0 0 1-3.624 1.32l-.015.002" transform="scale(1.72035) rotate(36.294 80.032 73.434)"/><path style="fill:url(#R);fill-opacity:1;stroke-width:.125924" d="M108.172 119.136c0 17.61-13.604 29.591-29.532 29.591-15.927 0-28.147-11.98-28.147-29.59 0-17.612 17.135-23.874 29.614-26.921 11.467-2.8 28.065 9.31 28.065 26.92z"/><path style="fill:url(#S);fill-opacity:1;stroke:none;stroke-width:.0913281px;stroke-linecap:butt;stroke-linejoin:miter;stroke-opacity:1" d="M43.63 61.345c-5.564 2.084-14.543 5.483-16.475 9.814.809 5.52 3.164 11.673 5.147 17.62.733 2.199 2.354 4.752 1.767 6.792-.587 2.04-1.28 4.228-1.28 4.228l-2.732 2.668 3.457-.856s1.494-.184 2.22-.453c.725-.27 1.274-.878 2.09-1.158 3.439-.222 2.721-1.912 1.922-2.818-.8-.907-2.116-4.221-2.532-5.243-.416-1.021-1.233-6.176-1.6-9.582-.368-3.405-1.257-6.273-1.758-7.976 4.071-2.882 8.601-5.67 13.017-8.204v-6.04l-3.329-.755z" transform="matrix(1.60935 0 0 1.72048 -6.462 -25.951)"/><path style="fill:url(#T);fill-opacity:1;stroke:none;stroke-width:.0913281px;stroke-linecap:butt;stroke-linejoin:miter;stroke-opacity:1" d="M43.431 61.227c-5.564 2.085-14.485 5.792-16.418 10.123.81 5.52 3.088 11.595 5.07 17.543 1.771-.232 4.21-1.596 4.21-1.596s-.746-3.897-.782-6.172c-.368-3.405-1.065-5.082-1.566-6.784 4.072-2.882 8.602-5.67 13.018-8.205v-6.04l-3.432-.745z" transform="matrix(1.60935 0 0 1.72048 -6.462 -25.951)"/><path style="display:inline;fill:url(#U);fill-opacity:1;stroke:none;stroke-width:.142169px;stroke-linecap:butt;stroke-linejoin:miter;stroke-opacity:1" d="m68.734 99.526 11.942-.062 1.142 5.165s.678 5.35-.93 10.515c-1.61 5.165-26.754 9.777-26.754 9.777s1.723 7.106 1.82 11.622c.136 6.246-.905 15.529-1.735 20.23-.09 3.182 1.016 6.002 1.016 9.285-.85 3.233-3.476 2.62-4.627 3.215-2.167 1.212-5.405 3.426-5.405 3.426l-3.006 1.291-3.513-1.23.127-1.783s3.302-1.947 4.698-3.197c2.352-1.317 4.103-4.795 6.046-7.128l.346-3.879c-.269-11.059-6.958-33.188-4.527-38.969 1.104-2.924 5.249-4.427 5.249-4.427l17.44-8.363z" transform="translate(0 -20.698)"/><path style="display:inline;fill:url(#V);fill-opacity:1;stroke:none;stroke-width:.142169px;stroke-linecap:butt;stroke-linejoin:miter;stroke-opacity:1" d="m68.012 99.437 12.784-.062s1.23 3.927 1.424 5.182c.537 3.477.677 5.35-.931 10.515-1.609 5.165-26.823 9.936-26.823 9.936s1.63 7.013 1.727 11.529c.135 6.246-.941 15.529-1.771 20.23-2.348.275-3.431.084-4.516 0-.27-11.059-7.426-34.31-4.995-40.092 1.103-2.924 5.116-4.592 5.116-4.592l17.242-8.396z" transform="translate(0 -20.698)"/><path style="fill:#213b3c;fill-opacity:1;stroke-width:.140339" d="m4.013 142.982 32.383-67.343 4.6.014-32.382 67.343ZM114.588 143.315 82.206 75.972l-4.6.014 32.382 67.343Z"/><path style="fill:#ab5b17;stroke-width:.258523" d="M17.365 75.676h82.208v9.382H17.365Z"/></g></svg>